<svg width="279" height="186" viewBox="0 0 279 186" fill="none" xmlns="http://www.w3.org/2000/svg">
<path d="M275.255 98.4792C265.116 94.9534 254.284 93.1659 243.058 93.1659C237.665 93.1659 232.254 93.5967 226.874 94.4219C233.391 71.2979 233.078 47.2558 225.597 25.5618L224.301 21.8012L220.446 22.727C202.81 26.9664 186.361 35.8211 172.374 48.2651C166.064 30.6031 155.876 14.901 142.437 2.67222L139.5 0L136.563 2.67222C123.123 14.901 112.935 30.6049 106.624 48.2686C106.624 48.2677 106.624 48.2694 106.624 48.2686C92.6388 35.8246 76.1911 26.9664 58.5539 22.727L54.6997 21.8012L53.4032 25.5618C45.9221 47.2549 45.6098 71.2969 52.126 94.4219C46.7462 93.5967 41.3357 93.1659 35.9428 93.1659C24.7168 93.1659 13.8844 94.9534 3.7449 98.4792L0 99.7809L0.922008 103.652C7.64203 131.846 27.2614 156.691 54.7513 171.816C71.6152 181.095 90.2818 185.999 108.732 186C108.73 186 108.735 186 108.732 186C119.43 186 129.772 184.356 139.5 181.15C149.228 184.356 159.566 186 170.268 186C188.717 186 207.385 181.096 224.25 171.816C251.739 156.691 271.359 131.846 278.078 103.652L279 99.7809L275.255 98.4792ZM218.572 32.2994C224.642 52.6335 224.054 75.0031 217.139 96.3685C207.479 98.7501 198.022 102.428 189.074 107.351C185.139 109.516 181.371 111.887 177.774 114.432C179.084 106.999 179.763 99.351 179.763 91.5756C179.763 79.8283 178.217 68.3682 175.269 57.5055C175.268 57.5028 175.269 57.5081 175.269 57.5055C187.779 45.5675 202.599 36.8603 218.572 32.2994ZM139.5 11.9705C159.577 31.8496 171.015 60.6159 171.015 91.5747C171.015 102.477 169.592 113.105 166.877 123.171C154.73 134.193 145.335 147.517 139.5 162.133C133.664 147.517 124.269 134.193 112.122 123.171C109.408 113.106 107.984 102.477 107.984 91.5756C107.983 60.6159 119.422 31.8506 139.5 11.9705ZM60.4259 32.2994C76.3993 36.8612 91.2163 45.5753 103.727 57.5133C100.781 68.3735 99.2346 79.8308 99.2346 91.5756C99.2346 99.3501 99.9132 106.999 101.223 114.432C97.6256 111.887 93.858 109.516 89.9234 107.351C80.9753 102.428 71.5189 98.7501 61.8588 96.3685C54.9446 75.0022 54.3567 52.6335 60.4259 32.2994ZM108.737 177.216C108.736 177.216 108.739 177.216 108.737 177.216C91.7509 177.215 74.5325 172.684 58.9528 164.112C34.921 150.889 17.4404 129.704 10.4649 105.541C18.5583 103.157 27.1084 101.95 35.941 101.95C42.3557 101.95 48.8028 102.598 55.1825 103.865C55.2333 103.875 55.2831 103.887 55.3339 103.898C56.185 104.068 57.0344 104.25 57.8829 104.443C58.5268 104.589 59.1689 104.748 59.811 104.907C60.0742 104.972 60.3376 105.035 60.6009 105.102C61.3506 105.294 62.0985 105.495 62.8447 105.705C62.9637 105.739 63.0818 105.771 63.2007 105.805C64.0186 106.037 64.8348 106.278 65.6483 106.53C72.5302 108.659 79.266 111.505 85.7194 115.056C109.751 128.279 127.232 149.464 134.209 173.626C126.115 176.009 117.567 177.216 108.737 177.216ZM220.046 164.113C204.464 172.685 187.252 177.217 170.267 177.217C161.435 177.217 152.883 176.01 144.79 173.625C151.766 149.463 169.247 128.277 193.279 115.055C199.731 111.505 206.469 108.658 213.349 106.529C214.165 106.277 214.982 106.035 215.799 105.803C215.917 105.77 216.034 105.738 216.151 105.705C216.898 105.495 217.648 105.293 218.399 105.1C218.661 105.033 218.922 104.971 219.184 104.906C219.827 104.746 220.471 104.587 221.116 104.441C221.963 104.249 222.812 104.067 223.661 103.897C223.713 103.887 223.763 103.875 223.815 103.865C230.195 102.598 236.642 101.949 243.057 101.949C251.889 101.949 260.44 103.156 268.533 105.54C261.557 129.704 244.078 150.89 220.046 164.113Z" fill="#676767" fill-opacity="0.05"/>
</svg>
