<svg width="104" height="58" viewBox="0 0 104 58" fill="none" xmlns="http://www.w3.org/2000/svg">
<g clip-path="url(#clip0_174_113)">
<path d="M16.0562 55.6831V52.3541C16.0562 51.699 16.5866 51.1582 17.2459 51.1582H19.7239V51.4019C19.7239 51.4552 19.686 51.4933 19.6329 51.4933H17.2459C16.8064 51.4933 16.4502 51.8514 16.4502 52.2932V55.7516C16.4502 56.1935 16.8064 56.5515 17.2459 56.5515H19.6329C19.686 56.5515 19.7239 56.5896 19.7239 56.6353V56.8791H17.2459C16.5866 56.8791 16.0562 56.3458 16.0562 55.6831ZM23.4674 54.1976L24.6495 56.8791H24.3009C24.2555 56.8791 24.2025 56.8486 24.1873 56.8029L23.0278 54.1824H21.1561C21.05 54.1824 20.9666 54.1291 20.9439 54.0605V56.7953C20.9439 56.841 20.906 56.8791 20.8606 56.8791H20.5499V51.3867C20.5499 51.2648 20.6484 51.1658 20.7696 51.1658H23.3689C24.0206 51.1658 24.5586 51.699 24.5586 52.3618V53.0245C24.5586 53.5654 24.0812 54.1976 23.4674 54.1976ZM21.0803 53.8548H23.3689C23.8084 53.8548 24.1646 53.4968 24.1646 53.055V52.2932C24.1646 51.8514 23.8084 51.4933 23.3689 51.4933H21.0273C20.9818 51.4933 20.9439 51.5314 20.9439 51.5771V53.7253C20.9439 53.7939 21.0045 53.8548 21.0803 53.8548ZM26.4454 51.4933C26.0059 51.4933 25.6497 51.8514 25.6497 52.2932V53.9539C25.6876 53.8929 25.771 53.8472 25.8619 53.8472H28.7719V54.0986C28.7719 54.1519 28.734 54.19 28.6885 54.19H25.6497V55.7516C25.6497 56.1935 26.0059 56.5515 26.4454 56.5515H28.8931C28.9462 56.5515 28.9841 56.5896 28.9841 56.6429V56.8791H26.4454C25.7862 56.8791 25.2557 56.3458 25.2557 55.6831V52.3541C25.2557 51.699 25.7862 51.1582 26.4454 51.1582H28.9841V51.4019C28.9841 51.4552 28.9462 51.4933 28.8931 51.4933H26.4454ZM31.2498 51.3791C31.2953 51.2572 31.4317 51.1582 31.5605 51.1582H32.576L34.5841 56.8791H34.2886C34.2356 56.8791 34.1825 56.841 34.1674 56.7953L33.6217 55.2108H30.2874L29.7419 56.7953C29.7267 56.841 29.6736 56.8791 29.6206 56.8791H29.325L31.2498 51.3791ZM31.5454 51.5695L30.4012 54.8832H33.5081L32.3335 51.4933H31.6591C31.606 51.4933 31.5605 51.5238 31.5454 51.5695ZM36.668 51.4933H34.857V51.242C34.857 51.1962 34.8949 51.1658 34.9403 51.1658H38.8884V51.4095C38.8884 51.4552 38.8505 51.4933 38.8051 51.4933H37.0621V56.7953C37.0621 56.841 37.0242 56.8791 36.9787 56.8791H36.668V51.4933ZM39.5098 56.7953V51.1582H39.8205C39.8659 51.1582 39.9038 51.1962 39.9038 51.242V56.8791H39.5932C39.5477 56.8791 39.5098 56.841 39.5098 56.7953ZM44.64 51.2496C44.64 51.2039 44.6779 51.1658 44.7234 51.1658H45.0341V56.8791H44.5946C44.5719 56.8791 44.5188 56.8791 44.4733 56.8029L41.6847 51.7219C41.6088 51.5848 41.4573 51.4933 41.3133 51.4933H41.2452V56.7953C41.2452 56.841 41.2073 56.8791 41.1618 56.8791H40.8511V51.242C40.8511 51.1962 40.889 51.1582 40.9345 51.1582H41.4346C41.624 51.1582 41.8741 51.3105 41.9574 51.4781L44.64 56.3915V51.2496ZM45.9586 52.3237C45.9586 51.6609 46.4891 51.1277 47.1484 51.1277H49.7324V51.3715C49.7324 51.4172 49.6946 51.4552 49.6491 51.4552H47.1484C46.7088 51.4552 46.3527 51.8133 46.3527 52.2551V55.7821C46.3527 56.2239 46.7088 56.582 47.1484 56.582H48.8155C49.2551 56.582 49.6112 56.2239 49.6112 55.7821V54.1367H48.1941C48.1486 54.1367 48.1108 54.0986 48.1108 54.0529V53.8015H49.9294C49.9749 53.8015 50.0052 53.8396 50.0052 53.8853V55.7212C50.0052 56.3763 49.4748 56.9171 48.8155 56.9171H47.1484C46.4891 56.9171 45.9586 56.3763 45.9586 55.7212V52.3237ZM53.5517 55.6831V52.3541C53.5517 51.699 54.0821 51.1582 54.7414 51.1582H57.2195V51.4019C57.2195 51.4552 57.1815 51.4933 57.1285 51.4933H54.7414C54.3019 51.4933 53.9457 51.8514 53.9457 52.2932V55.7516C53.9457 56.1935 54.3019 56.5515 54.7414 56.5515H57.1285C57.1815 56.5515 57.2195 56.5896 57.2195 56.6353V56.8791H54.7414C54.0821 56.8791 53.5517 56.3458 53.5517 55.6831ZM59.2276 56.9171C58.5683 56.9171 58.0378 56.3763 58.0378 55.7212V52.3237C58.0378 51.6685 58.5683 51.1277 59.2276 51.1277H61.0463C61.698 51.1277 62.236 51.6685 62.236 52.3237V55.7212C62.236 56.3763 61.698 56.9171 61.0463 56.9171H59.2276ZM59.2276 51.4629C58.7881 51.4629 58.4319 51.8209 58.4319 52.2627V55.7821C58.4319 56.2239 58.7881 56.582 59.2276 56.582H61.0463C61.4858 56.582 61.842 56.2239 61.842 55.7821V52.2627C61.842 51.8209 61.4858 51.4629 61.0463 51.4629H59.2276ZM68.0331 51.2039C68.0407 51.1886 68.0785 51.1658 68.0937 51.1658H68.5787V56.8791H68.268C68.2226 56.8791 68.1847 56.841 68.1847 56.7953V51.6762C68.1847 51.6762 66.4418 54.807 66.1462 55.325C66.1235 55.3631 66.0704 55.3936 66.0249 55.3936H65.6991C65.6537 55.3936 65.593 55.3631 65.5703 55.325L63.5394 51.6762V56.7953C63.5394 56.841 63.5015 56.8791 63.456 56.8791H63.1453V51.1658H63.6303C63.6455 51.1658 63.6834 51.1886 63.691 51.2039L65.8658 55.0508L68.0331 51.2039ZM70.7005 51.1582H73.2391V51.4095C73.2391 51.4552 73.2012 51.4933 73.1558 51.4933H70.7005C70.261 51.4933 69.9049 51.8514 69.9049 52.2932V53.9234C69.9504 53.8777 70.0185 53.8472 70.0943 53.8472H73.0724V54.0986C73.0724 54.1519 73.0269 54.19 72.9815 54.19H69.9049V56.7953C69.9049 56.841 69.8669 56.8791 69.8215 56.8791H69.5108V52.3541C69.5108 51.699 70.0412 51.1582 70.7005 51.1582ZM75.0579 56.9171C74.3986 56.9171 73.8681 56.3763 73.8681 55.7212V52.3237C73.8681 51.6685 74.3986 51.1277 75.0579 51.1277H76.8765C77.5282 51.1277 78.0663 51.6685 78.0663 52.3237V55.7212C78.0663 56.3763 77.5282 56.9171 76.8765 56.9171H75.0579ZM75.0579 51.4629C74.6183 51.4629 74.2622 51.8209 74.2622 52.2627V55.7821C74.2622 56.2239 74.6183 56.582 75.0579 56.582H76.8765C77.3161 56.582 77.6722 56.2239 77.6722 55.7821V52.2627C77.6722 51.8209 77.3161 51.4629 76.8765 51.4629H75.0579ZM81.8932 54.1976L83.0752 56.8791H82.7267C82.6813 56.8791 82.6282 56.8486 82.613 56.8029L81.4537 54.1824H79.5818C79.4758 54.1824 79.3925 54.1291 79.3697 54.0605V56.7953C79.3697 56.841 79.3318 56.8791 79.2863 56.8791H78.9756V51.3867C78.9756 51.2648 79.0742 51.1658 79.1954 51.1658H81.7947C82.4463 51.1658 82.9844 51.699 82.9844 52.3618V53.0245C82.9844 53.5654 82.507 54.1976 81.8932 54.1976ZM79.5061 53.8548H81.7947C82.2342 53.8548 82.5903 53.4968 82.5903 53.055V52.2932C82.5903 51.8514 82.2342 51.4933 81.7947 51.4933H79.453C79.4075 51.4933 79.3697 51.5314 79.3697 51.5771V53.7253C79.3697 53.7939 79.4303 53.8548 79.5061 53.8548ZM85.1744 51.4933H83.3633V51.242C83.3633 51.1962 83.4011 51.1658 83.4466 51.1658H87.3947V51.4095C87.3947 51.4552 87.3569 51.4933 87.3114 51.4933H85.5685V56.7953C85.5685 56.841 85.5305 56.8791 85.485 56.8791H85.1744V51.4933Z" fill="white"/>
</g>
<g clip-path="url(#clip1_174_113)">
<path d="M67.8718 12.4683C66.6642 12.0482 65.3738 11.8352 64.0367 11.8352C63.3944 11.8352 62.7499 11.8866 62.1091 11.9849C62.8853 9.2298 62.848 6.36533 61.957 3.78063L61.8026 3.33258L61.3435 3.44289C59.2427 3.94798 57.2836 5.00297 55.6176 6.48559C54.8659 4.38128 53.6524 2.51047 52.0517 1.05349L51.7019 0.735107L51.3521 1.05349C49.7513 2.51047 48.5377 4.38149 47.786 6.48601C47.786 6.4859 47.786 6.48611 47.786 6.48601C46.1202 5.00338 44.1611 3.94798 42.0603 3.44289L41.6013 3.33258L41.4468 3.78063C40.5558 6.36523 40.5186 9.22969 41.2947 11.9849C40.6539 11.8866 40.0095 11.8352 39.3671 11.8352C38.03 11.8352 36.7397 12.0482 35.532 12.4683L35.0859 12.6234L35.1958 13.0846C35.9962 16.4438 38.3331 19.4039 41.6074 21.2059C43.6161 22.3115 45.8395 22.8957 48.0371 22.8958C48.0369 22.8958 48.0374 22.8958 48.0371 22.8958C49.3114 22.8958 50.5432 22.6999 51.7019 22.3179C52.8606 22.6999 54.0919 22.8958 55.3667 22.8958C57.5642 22.8958 59.7877 22.3116 61.7965 21.2059C65.0708 19.4039 67.4077 16.4438 68.2081 13.0846L68.3179 12.6234L67.8718 12.4683ZM61.1203 4.58337C61.8432 7.00606 61.7732 9.67125 60.9495 12.2168C59.7989 12.5006 58.6725 12.9388 57.6067 13.5253C57.1379 13.7833 56.6892 14.0657 56.2608 14.369C56.4168 13.4833 56.4976 12.5722 56.4976 11.6458C56.4976 10.2461 56.3135 8.88075 55.9624 7.58652C55.9623 7.58621 55.9624 7.58683 55.9624 7.58652C57.4525 6.16419 59.2177 5.12677 61.1203 4.58337ZM51.7018 2.16132C54.0933 4.52979 55.4557 7.95712 55.4557 11.6457C55.4557 12.9446 55.2862 14.2109 54.9628 15.4101C53.516 16.7233 52.3969 18.3108 51.7019 20.0522C51.0067 18.3108 49.8877 16.7233 48.4409 15.4101C48.1176 14.211 47.948 12.9446 47.948 11.6458C47.9479 7.95712 49.3104 4.5299 51.7018 2.16132ZM42.2833 4.58337C44.1859 5.12689 45.9508 6.16512 47.441 7.58746C47.09 8.88138 46.9058 10.2464 46.9058 11.6458C46.9058 12.5721 46.9867 13.4833 47.1427 14.369C46.7142 14.0657 46.2654 13.7833 45.7968 13.5253C44.731 12.9388 43.6046 12.5006 42.454 12.2168C41.6304 9.67115 41.5604 7.00606 42.2833 4.58337ZM48.0377 21.8493C48.0376 21.8493 48.0379 21.8493 48.0377 21.8493C46.0145 21.8491 43.9636 21.3094 42.1079 20.288C39.2454 18.7126 37.1633 16.1885 36.3324 13.3097C37.2964 13.0256 38.3148 12.8818 39.3669 12.8818C40.131 12.8818 40.8989 12.9591 41.6588 13.11C41.6648 13.1111 41.6708 13.1126 41.6768 13.1138C41.7782 13.1341 41.8794 13.1558 41.9804 13.1788C42.0571 13.1962 42.1336 13.2152 42.2101 13.2341C42.2414 13.2419 42.2728 13.2494 42.3042 13.2573C42.3935 13.2802 42.4825 13.3042 42.5714 13.3292C42.5856 13.3333 42.5997 13.3371 42.6138 13.3411C42.7112 13.3688 42.8085 13.3975 42.9054 13.4274C43.7251 13.6812 44.5274 14.0203 45.296 14.4433C48.1585 16.0188 50.2407 18.5428 51.0717 21.4215C50.1076 21.7055 49.0894 21.8493 48.0377 21.8493ZM61.2958 20.2882C59.4398 21.3095 57.3896 21.8493 55.3666 21.8493C54.3145 21.8493 53.296 21.7056 52.332 21.4214C53.1629 18.5427 55.2451 16.0186 58.1075 14.4432C58.8761 14.0202 59.6786 13.6811 60.4981 13.4273C60.5953 13.3973 60.6926 13.3686 60.79 13.3408C60.804 13.3369 60.8179 13.3331 60.8319 13.3291C60.9209 13.3041 61.0102 13.2801 61.0996 13.2571C61.1308 13.2492 61.1619 13.2417 61.1931 13.234C61.2697 13.215 61.3464 13.196 61.4232 13.1786C61.5241 13.1557 61.6252 13.134 61.7264 13.1137C61.7325 13.1125 61.7386 13.1111 61.7447 13.1099C62.5046 12.9591 63.2726 12.8817 64.0366 12.8817C65.0887 12.8817 66.1071 13.0255 67.0711 13.3096C66.2402 16.1885 64.1582 18.7127 61.2958 20.2882Z" fill="white"/>
</g>
<g clip-path="url(#clip2_174_113)">
<path d="M0.640809 47.6374C1.16511 47.6374 1.60202 47.1982 1.60202 46.6712V27.1995C1.60202 26.6432 1.16511 26.204 0.640809 26.204H0.116513C0.0582578 26.204 0 26.1454 0 26.0868C0 26.0283 0.0582578 25.9697 0.116513 25.9697H5.41773C7.28191 25.9697 8.79656 27.5216 8.79656 29.3956V33.612C8.79656 35.5152 7.28191 37.0378 5.41773 37.0378H3.84486V46.6712C3.84486 47.1982 4.28178 47.6374 4.80609 47.6374H5.33039C5.38864 47.6374 5.44687 47.696 5.44687 47.7545C5.44687 47.8131 5.38864 47.8716 5.33039 47.8716H0.116513C0.0582578 47.8716 0 47.8131 0 47.7545C0 47.696 0.0582578 47.6374 0.116513 47.6374H0.640809ZM4.28177 26.204H3.84486V36.8036H4.28177C5.56343 36.8036 6.58286 35.7788 6.58286 34.5197V28.5171C6.58286 27.2288 5.56343 26.204 4.28177 26.204ZM16.0202 45.5292C15.5542 46.964 14.4473 47.8716 12.991 47.8716C11.855 47.8716 10.8355 47.4325 10.2529 46.7004C9.69952 45.9684 9.52474 44.9729 9.78688 43.8602C10.2821 41.752 12.3501 41.0786 14.3308 40.4343C14.9134 40.2587 15.5251 40.0537 16.1076 39.8195C17.9427 39.0582 18.0009 37.1549 18.0009 37.0085C18.0009 35.5445 17.098 33.9927 14.593 33.9927C12.9327 33.9927 11.6219 34.9296 11.2724 36.2473C11.4472 36.1009 11.6802 35.9837 11.9424 35.9837C12.4958 35.9837 12.9618 36.4522 12.9618 37.0085C12.9618 37.5649 12.4958 38.0334 11.9424 38.0334C11.3889 38.0334 10.9229 37.5649 10.9229 37.0085C10.9229 35.1639 12.4958 33.7583 14.593 33.7583C16.8067 33.7583 18.2339 35.0175 18.2631 36.9793V46.6712C18.2631 47.1982 18.6709 47.6374 19.2243 47.6374H19.7195C19.8069 47.6374 19.836 47.696 19.836 47.7545C19.836 47.8131 19.8069 47.8716 19.7195 47.8716H18.1174C16.9815 47.8716 16.0202 46.9347 16.0202 45.7634V45.5292ZM12.991 47.6374C15.0881 47.6374 16.0202 45.7927 16.0202 43.9481V40.083C15.4959 40.3172 14.9425 40.4929 14.3891 40.6686C12.3793 41.3128 10.486 41.957 10.0199 43.8895C9.78688 44.9729 9.90343 45.8806 10.4568 46.554C10.9811 47.2275 11.9132 47.6374 12.991 47.6374ZM24.4673 33.7583C25.8654 33.7583 27.0014 34.9003 27.0014 36.2765V37.0085C27.0014 37.5649 26.5354 38.0334 25.982 38.0334C25.4285 38.0334 24.9624 37.5649 24.9624 37.0085C24.9624 36.4522 25.4285 35.9837 25.982 35.9837C26.3023 35.9837 26.5645 36.1301 26.7684 36.3644V36.2765C26.7684 35.0175 25.7489 33.9927 24.4964 33.9927C23.2148 33.9927 22.1953 35.0175 22.1953 36.2765V46.6712C22.1953 47.1982 22.6322 47.6374 23.1565 47.6374H23.6808C23.7391 47.6374 23.7973 47.696 23.7973 47.7545C23.7973 47.8131 23.7391 47.8716 23.6808 47.8716H18.4961C18.4379 47.8716 18.3796 47.8131 18.3796 47.7545C18.3796 47.696 18.4379 47.6374 18.4961 47.6374H19.0204C19.5447 47.6374 19.9816 47.1982 19.9816 46.6712V36.9793C19.9816 36.95 20.0107 36.8914 20.0399 36.8914C21.9332 36.1009 21.9623 33.9048 21.9623 33.8755C21.9623 33.8169 22.0206 33.7583 22.0788 33.7583C22.1371 33.7583 22.1953 33.8169 22.1953 33.8755V35.2224C22.6031 34.344 23.4478 33.7583 24.4673 33.7583ZM31.8949 47.6374C31.9531 47.6374 32.0114 47.696 32.0114 47.7545C32.0114 47.8131 31.9531 47.8716 31.8949 47.8716H26.681C26.6227 47.8716 26.5645 47.8131 26.5645 47.7545C26.5645 47.696 26.6227 47.6374 26.681 47.6374H27.2053C27.7296 47.6374 28.1665 47.1982 28.1665 46.6712V36.95C28.1665 36.8914 28.1957 36.8621 28.2539 36.8328C30.1472 36.0715 30.1472 33.8462 30.1472 33.8169C30.1472 33.7583 30.2054 33.6998 30.2637 33.6998C30.3511 33.6998 30.3802 33.7583 30.4093 33.8169V46.6712C30.4093 47.1982 30.8171 47.6374 31.3706 47.6374H31.8949ZM29.2734 32.0308C28.6617 32.0308 28.1665 31.5331 28.1665 30.9474C28.1665 30.3325 28.6617 29.8348 29.2734 29.8348C29.8559 29.8348 30.3511 30.3325 30.3511 30.9474C30.3511 31.5331 29.8559 32.0308 29.2734 32.0308ZM34.0212 44.153C34.0212 44.7093 33.5843 45.1779 33.0309 45.1779C32.7687 45.1779 32.5357 45.0607 32.3318 44.9143C32.7396 46.4662 34.3125 47.6374 36.2058 47.6374H36.2932C37.837 47.6374 38.9146 47.2567 39.4972 46.5247C39.7885 46.1734 39.905 45.7927 39.8467 45.4121C39.7302 44.7679 39.0894 44.0945 37.9243 43.3624C36.3805 42.4254 34.3707 41.3421 34.3416 41.3128C32.7978 40.3465 32.0114 39.0874 32.0114 37.5063V37.477C32.0114 35.2224 33.6426 33.7583 36.2058 33.7583C37.3418 33.7583 38.303 34.1097 39.0312 34.6368C39.0312 34.6661 39.0312 34.6661 39.0603 34.6661L39.4681 34.9003C39.6137 34.9589 39.7885 34.9589 39.9341 34.8711C40.0798 34.7832 40.138 34.6368 40.138 34.4904V33.8755C40.138 33.8169 40.1963 33.7583 40.2546 33.7583C40.3419 33.7583 40.3711 33.8169 40.3711 33.8755V36.9793C40.3711 37.0671 40.3419 37.0963 40.2546 37.0963C40.1963 37.0963 40.138 37.0671 40.138 36.9793C40.138 35.5738 38.536 33.9927 36.2058 33.9927C34.895 33.9927 33.8464 34.4026 33.1474 35.1053C32.827 35.5738 32.7105 36.0423 32.827 36.4815C33.0017 37.4185 33.9338 38.0919 34.4581 38.4433L38.3904 40.7272C39.5555 41.4006 40.2836 42.3376 40.5167 43.421C40.7497 44.4165 40.4876 45.4999 39.8467 46.4369C39.7885 46.5247 39.7594 46.6126 39.672 46.6712C39.0603 47.4617 37.9243 47.8716 36.2932 47.8716H36.2058C33.8756 47.8716 32.0114 46.2027 32.0114 44.153C32.0114 43.5967 32.4774 43.1575 33.0309 43.1575C33.5843 43.1575 34.0212 43.5967 34.0212 44.153ZM47.8277 45.5292C47.3617 46.964 46.2549 47.8716 44.7985 47.8716C43.6625 47.8716 42.643 47.4325 42.0605 46.7004C41.507 45.9684 41.3322 44.9729 41.5944 43.8602C42.0896 41.752 44.1577 41.0786 46.1383 40.4343C46.7209 40.2587 47.3326 40.0537 47.9152 39.8195C49.7502 39.0582 49.8084 37.1549 49.8084 37.0085C49.8084 35.5445 48.9055 33.9927 46.4005 33.9927C44.7402 33.9927 43.4294 34.9296 43.0799 36.2473C43.2547 36.1009 43.4877 35.9837 43.7499 35.9837C44.3033 35.9837 44.7694 36.4522 44.7694 37.0085C44.7694 37.5649 44.3033 38.0334 43.7499 38.0334C43.1964 38.0334 42.7304 37.5649 42.7304 37.0085C42.7304 35.1639 44.3033 33.7583 46.4005 33.7583C48.6142 33.7583 50.0414 35.0175 50.0706 36.9793V46.6712C50.0706 47.1982 50.4784 47.6374 51.0318 47.6374H51.5269C51.6144 47.6374 51.6435 47.696 51.6435 47.7545C51.6435 47.8131 51.6144 47.8716 51.5269 47.8716H49.9249C48.789 47.8716 47.8277 46.9347 47.8277 45.7634V45.5292ZM44.7985 47.6374C46.8956 47.6374 47.8277 45.7927 47.8277 43.9481V40.083C47.3035 40.3172 46.75 40.4929 46.1966 40.6686C44.1868 41.3128 42.2935 41.957 41.8274 43.8895C41.5944 44.9729 41.7109 45.8806 42.2643 46.554C42.7887 47.2275 43.7207 47.6374 44.7985 47.6374ZM65.6253 47.8716C65.567 47.8716 65.5087 47.8131 65.5087 47.7545C65.5087 47.696 65.567 47.6374 65.6253 47.6374H66.1492C66.6737 47.6374 67.1108 47.1982 67.1108 46.6712V37.0378H63.353V46.6712C63.353 47.1982 63.7901 47.6374 64.314 47.6374H64.8385C64.8968 47.6374 64.955 47.696 64.955 47.7545C64.955 47.8131 64.8968 47.8716 64.8385 47.8716H59.6249C59.5667 47.8716 59.5084 47.8131 59.5084 47.7545C59.5084 47.696 59.5667 47.6374 59.6249 47.6374H60.1488C60.6734 47.6374 61.1104 47.1982 61.1104 46.6712V27.1995C61.1104 26.6432 60.6734 26.204 60.1488 26.204H59.6249C59.5667 26.204 59.5084 26.1454 59.5084 26.0868C59.5084 26.0283 59.5667 25.9697 59.6249 25.9697H64.8385C64.8968 25.9697 64.955 26.0283 64.955 26.0868C64.955 26.1454 64.8968 26.204 64.8385 26.204H64.314C63.7901 26.204 63.353 26.6432 63.353 27.1995V36.8036H67.1108V27.1995C67.1108 26.6432 66.6737 26.204 66.1492 26.204H65.6253C65.567 26.204 65.5087 26.1454 65.5087 26.0868C65.5087 26.0283 65.567 25.9697 65.6253 25.9697H70.8388C70.8971 25.9697 70.9554 26.0283 70.9554 26.0868C70.9554 26.1454 70.8971 26.204 70.8388 26.204H70.3143C69.7904 26.204 69.3533 26.6432 69.3533 27.1995V46.6712C69.3533 47.1982 69.7904 47.6374 70.3143 47.6374H70.8388C70.8971 47.6374 70.9554 47.696 70.9554 47.7545C70.9554 47.8131 70.8971 47.8716 70.8388 47.8716H65.6253ZM75.441 33.7583C77.3054 33.7583 78.82 35.281 78.82 37.1549V44.4751C78.82 46.3491 77.3054 47.8716 75.441 47.8716H74.3343C72.47 47.8716 70.9554 46.3491 70.9554 44.4751V37.1549C70.9554 35.281 72.47 33.7583 74.3343 33.7583H75.441ZM78.5869 44.4751V37.1549C78.5869 35.4274 77.1888 33.9927 75.441 33.9927C74.1886 33.9927 73.1694 35.0175 73.1694 36.2765V45.3535C73.1694 46.6126 74.1886 47.6374 75.441 47.6374C77.1888 47.6374 78.5869 46.2027 78.5869 44.4751ZM90.0047 47.6374C90.0921 47.6374 90.1213 47.696 90.1213 47.7545C90.1213 47.8131 90.0921 47.8716 90.0047 47.8716H88.4027C87.2668 47.8716 86.335 46.9347 86.335 45.7634V36.2765C86.335 35.076 85.3734 33.9927 84.1793 33.9927C82.9851 33.9927 82.0533 35.076 82.0533 36.2765V46.6712C82.0533 47.1982 82.4898 47.6374 83.0143 47.6374H83.5388C83.5971 47.6374 83.6553 47.696 83.6553 47.7545C83.6553 47.8131 83.5971 47.8716 83.5388 47.8716H78.3538C78.2955 47.8716 78.2372 47.8131 78.2372 47.7545C78.2372 47.696 78.2955 47.6374 78.3538 47.6374H78.8783C79.4022 47.6374 79.8393 47.1982 79.8393 46.6712V36.9793C79.8393 36.95 79.8684 36.8914 79.8976 36.8914C81.791 36.1009 81.8202 33.9048 81.8202 33.8755C81.8202 33.8169 81.8784 33.7583 81.9367 33.7583C81.995 33.7583 82.0533 33.8169 82.0533 33.8755V35.2224C82.4024 34.4318 83.16 33.7583 84.0627 33.7583H85.17C86.5972 33.7583 87.8496 34.6661 88.3152 35.9837C88.4609 34.8125 89.3934 33.7583 90.5292 33.7583H91.6359C93.5003 33.7583 95.0149 35.281 95.0149 37.1549V46.7004C95.044 47.2275 95.4811 47.6374 95.9759 47.6374H96.5004C96.5587 47.6374 96.617 47.696 96.617 47.7545C96.617 47.8131 96.5587 47.8716 96.5004 47.8716H94.8983C93.7334 47.8716 92.8009 46.9347 92.8009 45.7634V36.2765C92.8009 35.076 91.869 33.9927 90.6749 33.9927C89.4808 33.9927 88.5484 35.076 88.5484 36.2765V46.7004C88.5484 47.2275 88.9855 47.6374 89.51 47.6374H90.0047ZM103.345 40.9321H98.8304V45.3535C98.8304 46.554 99.792 47.5496 100.957 47.6374C101.889 47.5788 102.646 46.964 102.967 46.1441C102.792 46.2905 102.559 46.3783 102.326 46.3783C101.772 46.3783 101.307 45.9098 101.307 45.3535C101.307 44.7972 101.772 44.3287 102.326 44.3287C102.88 44.3287 103.345 44.7972 103.345 45.3535C103.345 46.6418 102.355 47.7252 101.103 47.8716H99.9959C98.1316 47.8716 96.617 46.3491 96.617 44.4751V37.1549C96.617 35.281 98.1316 33.7583 99.9959 33.7583H101.103C102.355 33.9048 103.345 34.9881 103.345 36.2765V40.9321ZM103.113 36.2765C103.113 35.076 102.151 34.0805 100.957 33.9927C99.792 34.0805 98.8304 35.076 98.8304 36.2765V40.6979H103.113V36.2765Z" fill="white"/>
</g>
<defs>
<clipPath id="clip0_174_113">
<rect width="71.3615" height="7.13615" fill="white" transform="translate(16.0562 50.5477)"/>
</clipPath>
<clipPath id="clip1_174_113">
<rect width="33.302" height="23.1925" fill="white" transform="translate(35.0859)"/>
</clipPath>
<clipPath id="clip2_174_113">
<rect width="103.474" height="22.5978" fill="white" transform="translate(0 25.5713)"/>
</clipPath>
</defs>
</svg>
