<svg width="396" height="84" viewBox="0 0 396 84" fill="none" xmlns="http://www.w3.org/2000/svg">
<path d="M2.45546 83.1016C4.46448 83.1016 6.13867 81.4173 6.13867 79.3958V4.71659C6.13867 2.58289 4.46448 0.898388 2.45546 0.898388H0.446455C0.223233 0.898388 0 0.673797 0 0.449196C0 0.224598 0.223233 0 0.446455 0H20.7598C27.903 0 33.7068 5.95187 33.7068 13.139V29.3103C33.7068 36.6096 27.903 42.4493 20.7598 42.4493H14.7328V79.3958C14.7328 81.4173 16.407 83.1016 18.4161 83.1016H20.4251C20.6483 83.1016 20.8714 83.3263 20.8714 83.5509C20.8714 83.7753 20.6483 84 20.4251 84H0.446455C0.223233 84 0 83.7753 0 83.5509C0 83.3263 0.223233 83.1016 0.446455 83.1016H2.45546ZM16.407 0.898388H14.7328V41.5509H16.407C21.3181 41.5509 25.2243 37.6205 25.2243 32.7914V9.77005C25.2243 4.82887 21.3181 0.898388 16.407 0.898388ZM61.3867 75.0161C59.6009 80.5189 55.3595 84 49.779 84C45.4262 84 41.5196 82.3157 39.2874 79.508C37.1668 76.7006 36.4971 72.8824 37.5015 68.6151C39.399 60.5294 47.3234 57.9466 54.9131 55.4759C57.1453 54.8021 59.4892 54.0162 61.7214 53.1178C68.7531 50.198 68.9764 42.8984 68.9764 42.3368C68.9764 36.7218 65.5164 30.7702 55.9176 30.7702C49.5557 30.7702 44.5332 34.3638 43.1937 39.4172C43.8635 38.8557 44.7565 38.4064 45.7609 38.4064C47.8815 38.4064 49.6673 40.2032 49.6673 42.3368C49.6673 44.4707 47.8815 46.2675 45.7609 46.2675C43.6404 46.2675 41.8546 44.4707 41.8546 42.3368C41.8546 35.2621 47.8815 29.8716 55.9176 29.8716C64.4003 29.8716 69.8692 34.7006 69.9808 42.2246V79.3958C69.9808 81.4173 71.5433 83.1016 73.6641 83.1016H75.5614C75.8963 83.1016 76.008 83.3263 76.008 83.5509C76.008 83.7753 75.8963 84 75.5614 84H69.4228C65.07 84 61.3867 80.4064 61.3867 75.9145V75.0161ZM49.779 83.1016C57.815 83.1016 61.3867 76.0267 61.3867 68.952V54.1284C59.3776 55.0268 57.257 55.7005 55.1364 56.3743C47.4351 58.845 40.1804 61.3155 38.3946 68.7273C37.5015 72.8824 37.9482 76.3638 40.0687 78.9465C42.0776 81.5295 45.6493 83.1016 49.779 83.1016ZM93.7543 29.8716C99.1115 29.8716 103.465 34.2513 103.465 39.5295V42.3368C103.465 44.4707 101.679 46.2675 99.5582 46.2675C97.4374 46.2675 95.6516 44.4707 95.6516 42.3368C95.6516 40.2032 97.4374 38.4064 99.5582 38.4064C100.786 38.4064 101.79 38.9679 102.572 39.8663V39.5295C102.572 34.7006 98.6651 30.7702 93.8657 30.7702C88.9549 30.7702 85.0485 34.7006 85.0485 39.5295V79.3958C85.0485 81.4173 86.7227 83.1016 88.7316 83.1016H90.7407C90.964 83.1016 91.1871 83.3263 91.1871 83.5509C91.1871 83.7753 90.964 84 90.7407 84H70.8736C70.6505 84 70.4272 83.7753 70.4272 83.5509C70.4272 83.3263 70.6505 83.1016 70.8736 83.1016H72.8828C74.8917 83.1016 76.566 81.4173 76.566 79.3958V42.2246C76.566 42.1124 76.6775 41.8878 76.7891 41.8878C84.0441 38.8557 84.1555 30.4331 84.1555 30.3209C84.1555 30.0962 84.3788 29.8716 84.6021 29.8716C84.8252 29.8716 85.0485 30.0962 85.0485 30.3209V35.4866C86.611 32.1177 89.8477 29.8716 93.7543 29.8716ZM122.215 83.1016C122.439 83.1016 122.662 83.3263 122.662 83.5509C122.662 83.7753 122.439 84 122.215 84H102.237C102.013 84 101.79 83.7753 101.79 83.5509C101.79 83.3263 102.013 83.1016 102.237 83.1016H104.246C106.255 83.1016 107.929 81.4173 107.929 79.3958V42.1124C107.929 41.8878 108.041 41.7753 108.264 41.6631C115.519 38.7433 115.519 30.2087 115.519 30.0962C115.519 29.8716 115.742 29.6471 115.965 29.6471C116.3 29.6471 116.411 29.8716 116.523 30.0962V79.3958C116.523 81.4173 118.086 83.1016 120.206 83.1016H122.215ZM112.17 23.2459C109.826 23.2459 107.929 21.3369 107.929 19.0909C107.929 16.7326 109.826 14.8235 112.17 14.8235C114.403 14.8235 116.3 16.7326 116.3 19.0909C116.3 21.3369 114.403 23.2459 112.17 23.2459ZM130.363 69.7379C130.363 71.8716 128.689 73.6686 126.568 73.6686C125.564 73.6686 124.671 73.2193 123.889 72.6578C125.452 78.6096 131.479 83.1016 138.734 83.1016H139.069C144.984 83.1016 149.114 81.6417 151.346 78.8343C152.462 77.4866 152.909 76.0267 152.685 74.567C152.239 72.0962 149.784 69.5135 145.319 66.7059C139.404 63.1123 131.702 58.9572 131.591 58.845C125.675 55.139 122.662 50.3102 122.662 44.2461V44.1336C122.662 35.4866 128.912 29.8716 138.734 29.8716C143.087 29.8716 146.77 31.2193 149.56 33.2407C149.56 33.3529 149.56 33.3529 149.672 33.3529L151.235 34.2513C151.793 34.476 152.462 34.476 153.02 34.1391C153.578 33.8022 153.802 33.2407 153.802 32.6792V30.3209C153.802 30.0962 154.025 29.8716 154.248 29.8716C154.583 29.8716 154.695 30.0962 154.695 30.3209V42.2246C154.695 42.5615 154.583 42.6737 154.248 42.6737C154.025 42.6737 153.802 42.5615 153.802 42.2246C153.802 36.8343 147.663 30.7702 138.734 30.7702C133.711 30.7702 129.693 32.3423 127.015 35.0375C125.787 36.8343 125.341 38.6311 125.787 40.3156C126.457 43.9092 130.028 46.4919 132.037 47.8396L147.105 56.5989C151.569 59.1819 154.36 62.7754 155.253 66.9305C156.145 70.7488 155.141 74.9039 152.685 78.4974C152.462 78.8343 152.351 79.1712 152.016 79.3958C149.672 82.4279 145.319 84 139.069 84H138.734C129.805 84 122.662 77.599 122.662 69.7379C122.662 67.6043 124.448 65.9199 126.568 65.9199C128.689 65.9199 130.363 67.6043 130.363 69.7379ZM183.267 75.0161C181.481 80.5189 177.24 84 171.66 84C167.307 84 163.4 82.3157 161.168 79.508C159.047 76.7006 158.378 72.8824 159.382 68.6151C161.28 60.5294 169.204 57.9466 176.794 55.4759C179.026 54.8021 181.37 54.0162 183.602 53.1178C190.634 50.198 190.857 42.8984 190.857 42.3368C190.857 36.7218 187.397 30.7702 177.798 30.7702C171.436 30.7702 166.414 34.3638 165.075 39.4172C165.744 38.8557 166.637 38.4064 167.642 38.4064C169.762 38.4064 171.548 40.2032 171.548 42.3368C171.548 44.4707 169.762 46.2675 167.642 46.2675C165.521 46.2675 163.735 44.4707 163.735 42.3368C163.735 35.2621 169.762 29.8716 177.798 29.8716C186.281 29.8716 191.75 34.7006 191.861 42.2246V79.3958C191.861 81.4173 193.424 83.1016 195.545 83.1016H197.442C197.777 83.1016 197.889 83.3263 197.889 83.5509C197.889 83.7753 197.777 84 197.442 84H191.303C186.951 84 183.267 80.4064 183.267 75.9145V75.0161ZM171.66 83.1016C179.696 83.1016 183.267 76.0267 183.267 68.952V54.1284C181.258 55.0268 179.138 55.7005 177.017 56.3743C169.316 58.845 162.061 61.3155 160.275 68.7273C159.382 72.8824 159.829 76.3638 161.949 78.9465C163.958 81.5295 167.53 83.1016 171.66 83.1016ZM251.464 84C251.241 84 251.017 83.7753 251.017 83.5509C251.017 83.3263 251.241 83.1016 251.464 83.1016H253.472C255.481 83.1016 257.156 81.4173 257.156 79.3958V42.4493H242.757V79.3958C242.757 81.4173 244.432 83.1016 246.44 83.1016H248.449C248.673 83.1016 248.896 83.3263 248.896 83.5509C248.896 83.7753 248.673 84 248.449 84H228.472C228.249 84 228.025 83.7753 228.025 83.5509C228.025 83.3263 228.249 83.1016 228.472 83.1016H230.48C232.489 83.1016 234.164 81.4173 234.164 79.3958V4.71659C234.164 2.58289 232.489 0.898388 230.48 0.898388H228.472C228.249 0.898388 228.025 0.673797 228.025 0.449196C228.025 0.224598 228.249 0 228.472 0H248.449C248.673 0 248.896 0.224598 248.896 0.449196C248.896 0.673797 248.673 0.898388 248.449 0.898388H246.44C244.432 0.898388 242.757 2.58289 242.757 4.71659V41.5509H257.156V4.71659C257.156 2.58289 255.481 0.898388 253.472 0.898388H251.464C251.241 0.898388 251.017 0.673797 251.017 0.449196C251.017 0.224598 251.241 0 251.464 0H271.441C271.665 0 271.888 0.224598 271.888 0.449196C271.888 0.673797 271.665 0.898388 271.441 0.898388H269.432C267.424 0.898388 265.749 2.58289 265.749 4.71659V79.3958C265.749 81.4173 267.424 83.1016 269.432 83.1016H271.441C271.665 83.1016 271.888 83.3263 271.888 83.5509C271.888 83.7753 271.665 84 271.441 84H251.464ZM289.076 29.8716C296.22 29.8716 302.024 35.7112 302.024 42.8984V70.9732C302.024 78.1606 296.22 84 289.076 84H284.836C277.692 84 271.888 78.1606 271.888 70.9732V42.8984C271.888 35.7112 277.692 29.8716 284.836 29.8716H289.076ZM301.131 70.9732V42.8984C301.131 36.2728 295.773 30.7702 289.076 30.7702C284.277 30.7702 280.372 34.7006 280.372 39.5295V74.3423C280.372 79.1712 284.277 83.1016 289.076 83.1016C295.773 83.1016 301.131 77.599 301.131 70.9732ZM344.882 83.1016C345.217 83.1016 345.328 83.3263 345.328 83.5509C345.328 83.7753 345.217 84 344.882 84H338.743C334.391 84 330.82 80.4064 330.82 75.9145V39.5295C330.82 34.925 327.135 30.7702 322.56 30.7702C317.984 30.7702 314.413 34.925 314.413 39.5295V79.3958C314.413 81.4173 316.086 83.1016 318.096 83.1016H320.105C320.329 83.1016 320.552 83.3263 320.552 83.5509C320.552 83.7753 320.329 84 320.105 84H300.237C300.014 84 299.791 83.7753 299.791 83.5509C299.791 83.3263 300.014 83.1016 300.237 83.1016H302.247C304.255 83.1016 305.93 81.4173 305.93 79.3958V42.2246C305.93 42.1124 306.041 41.8878 306.153 41.8878C313.408 38.8557 313.52 30.4331 313.52 30.3209C313.52 30.0962 313.743 29.8716 313.967 29.8716C314.19 29.8716 314.413 30.0962 314.413 30.3209V35.4866C315.751 32.4545 318.654 29.8716 322.113 29.8716H326.356C331.825 29.8716 336.624 33.3529 338.408 38.4064C338.966 33.9144 342.539 29.8716 346.892 29.8716H351.132C358.276 29.8716 364.08 35.7112 364.08 42.8984V79.508C364.192 81.5295 365.866 83.1016 367.762 83.1016H369.772C369.995 83.1016 370.219 83.3263 370.219 83.5509C370.219 83.7753 369.995 84 369.772 84H363.633C359.169 84 355.596 80.4064 355.596 75.9145V39.5295C355.596 34.925 352.026 30.7702 347.45 30.7702C342.874 30.7702 339.301 34.925 339.301 39.5295V79.508C339.301 81.5295 340.976 83.1016 342.986 83.1016H344.882ZM396 57.3851H378.7V74.3423C378.7 78.9465 382.385 82.7647 386.849 83.1016C390.419 82.877 393.323 80.5189 394.551 77.3744C393.881 77.9359 392.988 78.2728 392.094 78.2728C389.973 78.2728 388.189 76.476 388.189 74.3423C388.189 72.2087 389.973 70.4119 392.094 70.4119C394.216 70.4119 396 72.2087 396 74.3423C396 79.2834 392.206 83.4385 387.407 84H383.166C376.023 84 370.219 78.1606 370.219 70.9732V42.8984C370.219 35.7112 376.023 29.8716 383.166 29.8716H387.407C392.206 30.4331 396 34.5882 396 39.5295V57.3851ZM395.109 39.5295C395.109 34.925 391.424 31.1071 386.849 30.7702C382.385 31.1071 378.7 34.925 378.7 39.5295V56.4867H395.109V39.5295Z" fill="white"/>
</svg>
