<svg width="110" height="14" viewBox="0 0 110 14" fill="none" xmlns="http://www.w3.org/2000/svg">
<g clip-path="url(#clip0_3_428)">
<path d="M9.26856 7.74788C9.26856 9.57065 7.90698 10.6467 6.3697 10.6467C4.70065 10.6467 3.47083 9.43888 3.47083 7.74788V0.456802H0.000976562V7.59416C0.000976562 10.9322 2.28493 13.8311 6.39165 13.8311C10.6521 13.8311 12.9361 10.9322 12.9361 7.59416V0.456802H9.26856V7.74788Z" fill="black"/>
<path d="M22.2036 0.149277C17.7894 0.149277 15.6592 3.04814 15.6592 6.38623V13.5236H19.151V6.2325C19.151 4.40973 20.5126 3.33364 22.0498 3.33364C23.7189 3.33364 24.9488 4.5415 24.9488 6.2325V13.5236H28.4406V6.38623C28.5943 3.04814 26.3103 0.149277 22.2036 0.149277Z" fill="black"/>
<path d="M35.2925 13.5457V0.456802H31.7787V2.27957V13.5457H35.2925Z" fill="black"/>
<path d="M44.8675 8.36279L41.2218 0.456802H37.5763L43.6596 13.5457H46.0752L52.1585 0.456802H48.513L44.8675 8.36279Z" fill="black"/>
<path d="M57.9562 13.5457V0.456802H54.4424V2.27957V13.5457H57.9562Z" fill="black"/>
<path d="M64.94 4.1023C64.94 3.48739 65.7087 3.04816 66.7628 3.04816C67.6852 3.04816 68.5856 3.50934 69.3542 3.97053L71.0233 1.37911C70.1009 0.764205 68.2782 0.0175323 66.6091 0.0175323C64.0177 0.0175323 61.5799 1.53285 61.5799 4.12425C61.5799 8.38471 67.9707 7.61608 67.9707 9.59257C67.9707 10.2075 67.202 10.6467 66.3016 10.6467C64.94 10.6467 63.5565 10.1855 62.6561 9.28511L60.6795 12.0302C62.1949 13.0844 64.1714 13.853 65.9941 13.853C68.7392 13.853 71.155 12.3377 71.155 9.74629C71.3307 5.17839 64.94 5.92507 64.94 4.1023Z" fill="black"/>
<path d="M77.5675 13.5457V0.456802H74.0757V2.27957V13.5457H77.5675Z" fill="black"/>
<path d="M87.1427 0.149277C83.1897 0.149277 80.1371 3.20186 80.1371 7.00114C80.1371 10.8004 83.1897 13.853 87.1427 13.853C91.0957 13.853 94.1483 10.8004 94.1483 7.00114C94.1483 3.20186 91.0957 0.149277 87.1427 0.149277ZM87.1427 10.4929C85.1661 10.4929 83.6508 8.97763 83.6508 7.00114C83.6508 5.02463 85.0124 3.35559 87.1427 3.35559C89.2729 3.35559 90.6345 5.02463 90.6345 7.00114C90.6345 8.97763 89.2729 10.4929 87.1427 10.4929Z" fill="black"/>
<path d="M103.108 0.149277C98.8479 0.149277 96.5639 3.04814 96.5639 6.38623V13.5236H100.056V6.2325C100.056 4.40973 101.417 3.33364 102.955 3.33364C104.624 3.33364 105.853 4.5415 105.853 6.2325V13.5236H109.499V6.38623C109.499 3.04814 107.215 0.149277 103.108 0.149277Z" fill="black"/>
</g>
<defs>
<clipPath id="clip0_3_428">
<rect width="109.498" height="13.9062" fill="white" transform="translate(0.000976562)"/>
</clipPath>
</defs>
</svg>
