<svg width="164" height="31" viewBox="0 0 164 31" fill="none" xmlns="http://www.w3.org/2000/svg">
<path fill-rule="evenodd" clip-rule="evenodd" d="M70.3948 7.67203C72.5024 7.67203 74.5655 8.05501 75.8084 8.40131L75.9147 8.43132L76.0149 7.91952H84.6075V10.7666L82.7055 10.9724L85.4226 20.6113H85.6602L88.683 8.36544H93.8114L96.7321 20.6113H96.936L99.4832 10.9724L97.5472 10.7666L97.9888 7.91952H105.121L105.12 9.83949C104.967 10.1473 104.823 10.4616 104.692 10.7821L103.898 10.938C103.441 11.004 103.235 11.1651 103.1 11.5739L103.083 11.6241L98.9058 25.7909H93.5396L90.8905 14.2996H90.6868L88.0037 25.7909H81.8905L77.6111 11.5898C77.4809 11.1954 77.3195 11.1159 76.9476 11.0194L76.8979 11.0067L76.5984 10.9418L76.6176 11.0194V13.62L72.999 13.3809L72.6607 11.6031C72.6273 11.3297 72.5593 11.1931 72.3231 11.1247L72.2152 11.0932C71.7579 10.9679 71.0015 10.8511 70.1586 10.8511C68.4676 10.8511 67.5204 11.5006 67.5204 12.5945C67.5204 13.7898 68.8737 14.1896 70.5517 14.5783L71.6846 14.8387L71.8413 14.8763C74.4049 15.4994 77.1251 16.5522 77.1251 20.3539C77.1251 24.5244 73.7773 26.2334 69.4821 26.2334C66.4861 26.2334 63.5543 25.4559 62.8393 25.0364L62.7859 25.0029V20.0464L66.4045 20.3198L66.7432 22.2683L66.7538 22.3515C66.7914 22.6012 66.8736 22.7192 67.1488 22.7808L67.2282 22.8064L67.3184 22.833L67.4196 22.8606L67.5359 22.8895C68.0238 23.0057 68.7822 23.1227 69.753 23.1227C71.5448 23.1227 72.5593 22.6101 72.5593 21.3452C72.5593 20.0003 71.2505 19.5816 69.5666 19.2753L68.7964 19.1351L68.4683 19.0723C65.8308 18.5535 62.9217 17.6145 62.9217 13.6543C62.9217 9.41572 66.506 7.67203 70.3948 7.67203ZM39.2069 7.67203C44.2681 7.67203 46.3296 9.04624 46.3703 13.7168L46.3709 13.8594L46.371 22.2156L46.3721 22.3073L46.3751 22.3889L46.3806 22.4636C46.4067 22.72 46.4993 22.7857 46.8182 22.836L46.9091 22.8492L48.2774 23.081V20.0464L51.8764 20.3198L52.2131 22.2683C52.2459 22.5757 52.3139 22.7126 52.6166 22.7808L52.6955 22.8064L52.7852 22.833L52.8859 22.8606L53.0016 22.8895C53.4867 23.0057 54.2411 23.1227 55.2065 23.1227C56.9885 23.1227 57.9975 22.6101 57.9975 21.3452C57.9975 20.0452 56.7812 19.6106 55.1873 19.3063L54.2446 19.1331L53.9188 19.0702L53.6823 19.0223L53.4521 18.9733C50.9674 18.4292 48.4125 17.3756 48.4125 13.6543C48.4125 9.41572 51.9772 7.67203 55.8448 7.67203C58.4125 7.67203 60.9175 8.24707 61.9332 8.62474L62.0337 8.66341V13.62L58.4348 13.3809L58.0983 11.6031C58.0652 11.3297 57.9975 11.1931 57.7626 11.1247C57.3253 10.9881 56.5181 10.8511 55.61 10.8511C53.9281 10.8511 52.9862 11.5006 52.9862 12.5945C52.9862 13.8105 54.3789 14.2029 56.0875 14.5983L56.8877 14.7823C59.5446 15.3974 62.5384 16.3546 62.5384 20.3539C62.5384 24.5241 59.2089 26.2334 54.9371 26.2334C52.216 26.2334 49.5542 25.5859 48.5706 25.1537L48.5236 25.1325V25.823H42.3347L41.9979 23.9772L41.8301 23.9431C40.5524 25.208 38.8705 26.2334 36.1797 26.2334C31.9424 26.2334 31.2692 23.294 31.2692 21.1743C31.2692 17.7903 33.3133 16.2154 37.4334 15.9188L41.4266 15.6371L41.4265 13.6911L41.4248 13.4974L41.4222 13.3695L41.4155 13.1826L41.4088 13.0614C41.3312 11.8427 40.9415 11.0565 39.1731 11.0565L38.9669 11.058L38.8343 11.0609C37.4629 11.1002 36.7403 11.4338 36.7184 13.26L36.7178 13.3468L31.9752 12.9361C31.9752 8.36797 36.0303 7.68543 39.1138 7.67223L39.2069 7.67203ZM161.071 0L161.072 22.15L161.075 22.2291C161.09 22.5265 161.168 22.5981 161.51 22.6524L163.195 22.9028V25.5793H157.021L156.689 23.6821L156.456 23.6481C155.062 25.0372 153.435 25.9859 151.012 25.9859C147.095 25.9859 144.572 23.4449 144.572 16.9738C144.572 10.164 147.925 7.58911 151.61 7.58911C153.489 7.58911 154.958 8.23482 156.2 9.14805L156.29 9.21534V4.06559C156.29 3.74463 156.171 3.51488 155.905 3.40517L155.859 3.38799L154.032 2.74427L154.398 0H161.071ZM141.761 7.42455C142.52 7.42455 144.013 7.55345 144.667 7.71782L144.731 7.73495V14.012L140.634 13.8741L140.293 12.0461C140.224 11.7357 140.122 11.6668 139.848 11.6668C139.013 11.6668 138.026 12.3388 137.486 12.7918L137.39 12.8739V22.073C137.393 22.5568 137.44 22.6634 137.89 22.6999L141.317 22.9793V25.7384H130.151V22.9447L131.687 22.7378C132.15 22.6711 132.229 22.572 132.233 22.0968V11.9426C132.233 11.5805 132.14 11.3441 131.834 11.2334L131.789 11.2184L129.964 10.5692L129.95 10.5352L130.321 7.76944H136.331L136.741 10.5286H136.946C138.073 8.76963 139.576 7.42455 141.761 7.42455ZM23.71 0.989939C29.9866 0.989939 31.8859 4.34013 31.8859 8.27097C31.8859 14.1591 28.3953 16.5633 22.7619 16.6107L22.5906 16.6116H20.1141L20.1146 22.1778L20.1165 22.2644L20.1208 22.3441C20.1424 22.63 20.2299 22.6991 20.5672 22.7517L20.6572 22.7646L25.5081 23.0381V25.7384H12.21V25.7305L12.1951 25.7384H0.393873V23.0499L3.2849 22.8111C3.72451 22.7794 3.81218 22.6589 3.82192 22.2281L3.8229 22.1309V10.3777C3.8229 9.89017 3.46002 9.9706 0.932605 10.8357L0 8.04463L5.77645 4.70222H8.8998L8.89991 22.1806L8.90105 22.2727L8.90395 22.3551C8.92119 22.6924 9.00585 22.7765 9.39222 22.8077L9.43815 22.8111L12.1951 23.0499L12.21 23.0571V23.0381L14.3472 22.7986C14.7901 22.7351 14.8791 22.6415 14.889 22.2123L14.89 22.1151V4.64766C14.89 4.15218 14.8262 4.00741 14.3933 3.96755L14.3472 3.96379L12.21 3.72471V0.989939H23.71ZM41.3316 18.2953L39.0449 18.4647C37.0617 18.6001 36.3555 19.108 36.3555 20.4633C36.3555 21.8189 37.1625 22.3269 38.272 22.3269C39.3807 22.3269 40.4895 21.7213 41.2603 21.1599L41.3316 21.1073V18.2953ZM153.078 11.5221C150.642 11.5221 149.672 13.8256 149.651 16.8145V16.9122C149.651 20.2213 150.583 22.0635 152.679 22.0635C153.777 22.0635 154.971 21.4196 155.862 20.6636L155.939 20.5965V12.5455C155.107 11.9656 154.043 11.5221 153.078 11.5221ZM22.0282 4.74345H20.044V12.9081L21.792 12.9079L21.9242 12.9067L22.1194 12.9021L22.2457 12.8975L22.4316 12.8878C24.4345 12.7641 26.3989 11.9965 26.3989 8.57158C26.3989 5.31896 24.4147 4.74345 22.0282 4.74345Z" fill="black"/>
<path fill-rule="evenodd" clip-rule="evenodd" d="M117.282 1.80939C125.193 1.80939 131.606 8.28681 131.606 16.277C131.606 24.2674 125.193 30.7445 117.282 30.7445C109.37 30.7445 102.957 24.2674 102.957 16.277C102.957 8.28681 109.37 1.80939 117.282 1.80939ZM117.282 4.74811C110.977 4.74811 105.866 9.9098 105.866 16.277C105.866 22.6444 110.977 27.8058 117.282 27.8058C123.586 27.8058 128.697 22.6444 128.697 16.277C128.697 9.9098 123.586 4.74811 117.282 4.74811ZM117.282 7.68684C121.978 7.68684 125.786 11.5328 125.786 16.277C125.786 21.0213 121.978 24.867 117.282 24.867C112.584 24.867 108.776 21.0213 108.776 16.277C108.776 11.5328 112.584 7.68684 117.282 7.68684ZM118.654 10.1734H115.909C115.567 10.1734 115.287 10.4742 115.268 10.8534L115.267 10.8959V13.7926C115.271 13.9001 115.307 14.0088 115.371 14.0951L115.397 14.1264L115.798 14.5779C115.956 14.756 115.965 15.0391 115.823 15.2283L115.798 15.259L115.397 15.7105C115.325 15.7908 115.282 15.8965 115.273 16.0087L115.271 16.051L115.267 21.658C115.267 22.0427 115.534 22.3572 115.871 22.3793L115.909 22.3805H118.654C118.996 22.3805 119.275 22.0797 119.294 21.7004L119.295 21.658V18.9807C119.295 18.8671 119.26 18.7578 119.196 18.6714L119.17 18.6401L118.768 18.1886C118.611 18.0104 118.602 17.7274 118.744 17.5381L118.768 17.5074L119.17 17.0559C119.242 16.9757 119.285 16.8699 119.294 16.7577L119.295 16.7154V10.8959C119.295 10.4969 119.008 10.1734 118.654 10.1734Z" fill="black"/>
</svg>
