<svg width="152" height="57" viewBox="0 0 152 57" fill="none" xmlns="http://www.w3.org/2000/svg">
<path d="M0 41.0208H7.07597V42.595H1.70043V46.2993H6.65385V47.795H1.70043V52.5416H0V41.0208Z" fill="white"/>
<path d="M12.0878 43.5713C14.5729 43.5713 16.2495 45.4318 16.2495 48.1796C16.2495 50.9274 14.58 52.7879 12.0878 52.7879C9.59563 52.7879 7.92383 50.9274 7.92383 48.1796C7.92383 45.4318 9.60278 43.5713 12.0878 43.5713ZM12.0878 45.0692C10.5066 45.0692 9.53599 46.2619 9.53599 48.1701C9.53599 50.0782 10.5066 51.2709 12.0878 51.2709C13.6689 51.2709 14.6372 50.0782 14.6372 48.1701C14.6372 46.2619 13.6666 45.0692 12.0878 45.0692Z" fill="white"/>
<path d="M17.7056 43.8193H19.22V44.5349H19.2534C19.5992 43.9935 20.2741 43.6643 21.0803 43.6643C21.408 43.668 21.7339 43.7121 22.0509 43.7955L21.7385 45.4079C21.4445 45.3174 21.1396 45.2677 20.8322 45.2601C19.8281 45.2601 19.3177 45.9518 19.3177 47.464V52.5423H17.7056V43.8193Z" fill="white"/>
<path d="M23.062 43.8199H24.6099V44.5045H24.6408C24.9152 44.2024 25.251 43.9623 25.6257 43.8007C26.0004 43.6391 26.4054 43.5593 26.8134 43.567C27.248 43.5595 27.6783 43.6538 28.0697 43.8428C28.461 44.0317 28.8028 44.3098 29.0671 44.6548H29.091C29.389 44.3151 29.7557 44.0424 30.1667 43.855C30.5778 43.6674 31.0241 43.5694 31.4759 43.567C33.2526 43.567 34.5762 44.8027 34.5762 46.5463V52.5429H32.9951V46.8182C32.9951 45.7663 32.3202 45.0745 31.2852 45.0745C30.2501 45.0745 29.5727 45.8163 29.5727 46.9184V52.5477H28.0655V46.823C28.0655 45.7711 27.3739 45.0793 26.3698 45.0793C25.3157 45.0793 24.6408 45.8211 24.6408 46.9232V52.5524H23.062V43.8199Z" fill="white"/>
<path d="M40.0673 43.5713C42.4355 43.5713 44.0167 45.365 44.0167 47.9816V48.6567H37.6443C37.6355 49.3657 37.8807 50.0545 38.3358 50.5983C38.5488 50.8461 38.8149 51.043 39.1141 51.1743C39.4134 51.3055 39.7383 51.368 40.0649 51.3568C41.1667 51.3568 41.825 50.9274 42.5499 49.7611L43.7997 50.5983C43.0269 52.0485 41.7439 52.7879 40.0816 52.7879C37.6609 52.7879 36.0273 50.9274 36.0273 48.1796C36.0273 45.4318 37.6824 43.5713 40.0673 43.5713ZM42.4187 47.4235C42.3544 45.9923 41.4481 45.0025 40.0673 45.0025C39.4331 45.0167 38.8293 45.2775 38.3841 45.7294C37.9389 46.1813 37.6872 46.789 37.6824 47.4235H42.4187Z" fill="white"/>
<path d="M45.4721 43.8193H46.9816V44.5349H47.0151C47.3609 43.9935 48.0358 43.6643 48.8419 43.6643C49.1696 43.668 49.4957 43.7121 49.8126 43.7955L49.5001 45.4079C49.207 45.3177 48.9029 45.2679 48.5962 45.2601C47.5922 45.2601 47.082 45.9518 47.082 47.464V52.5423H45.4673L45.4721 43.8193Z" fill="white"/>
<path d="M50.8267 40.5264H52.4389V52.541H50.8267V40.5264Z" fill="white"/>
<path d="M56.7417 51.8841L53.3862 43.8196H55.0796L57.5479 50.0212H57.5812L60.0831 43.8196H61.7715L56.5868 56.2445H54.9173L56.7417 51.8841Z" fill="white"/>
<path d="M65.9502 41.0208H67.6459V46.5999H67.6769L72.2368 41.0208H74.2616L70.0475 46.0895L74.6885 52.5416H72.6303L68.9957 47.3656H68.9624L67.6459 48.9781V52.5416H65.9502V41.0208Z" fill="white"/>
<path d="M78.6451 43.5713C81.0157 43.5713 82.5945 45.365 82.5945 47.9816V48.6567H76.2268C76.2169 49.3659 76.4624 50.055 76.9185 50.5983C77.1307 50.8463 77.3962 51.0433 77.6952 51.1746C77.9941 51.306 78.3187 51.3682 78.6451 51.3568C79.7469 51.3568 80.4052 50.9274 81.1301 49.7611L82.3799 50.5983C81.6071 52.0485 80.3241 52.7879 78.6618 52.7879C76.2435 52.7879 74.6074 50.9274 74.6074 48.1796C74.6074 45.4318 76.2602 43.5713 78.6451 43.5713ZM80.9989 47.4235C80.9322 45.9923 80.0283 45.0025 78.6451 45.0025C78.0109 45.0167 77.4072 45.2775 76.9619 45.7294C76.5167 46.1813 76.2651 46.789 76.2602 47.4235H80.9989Z" fill="white"/>
<path d="M87.71 43.5713C90.0806 43.5713 91.6594 45.365 91.6594 47.9816V48.6567H85.2917C85.2829 49.3657 85.5282 50.0545 85.9833 50.5983C86.1959 50.8461 86.4614 51.0428 86.7603 51.1741C87.0592 51.3055 87.3838 51.3678 87.71 51.3568C88.8141 51.3568 89.4724 50.9274 90.1951 49.7611L91.4471 50.5983C90.6721 52.0485 89.3889 52.7879 87.7266 52.7879C85.3084 52.7879 83.6724 50.9274 83.6724 48.1796C83.6724 45.4318 85.3251 43.5713 87.71 43.5713ZM90.0639 47.4235C89.9971 45.9923 89.0933 45.0025 87.71 45.0025C87.0758 45.0167 86.472 45.2775 86.0268 45.7294C85.5816 46.1813 85.3299 46.789 85.3251 47.4235H90.0639Z" fill="white"/>
<path d="M93.1177 43.8198H94.6967V44.6259H94.7301C95.0481 44.2868 95.4334 44.018 95.8613 43.8364C96.2892 43.6548 96.7504 43.5647 97.2151 43.5717C99.4855 43.5717 101.131 45.4798 101.131 48.18C101.131 50.8801 99.4855 52.7883 97.2318 52.7883C96.771 52.7951 96.3139 52.7063 95.8891 52.5278C95.4643 52.3493 95.081 52.0847 94.7635 51.7507H94.7301V56.2445H93.1177V43.8198ZM97.0839 45.0696C96.7757 45.0677 96.4701 45.1267 96.1847 45.2434C95.8995 45.36 95.6399 45.5318 95.4212 45.749C95.2024 45.9662 95.0288 46.2246 94.9102 46.5091C94.7916 46.7936 94.7303 47.0988 94.7301 47.4072V48.9385C94.7259 49.2445 94.7824 49.5482 94.8961 49.8323C95.0098 50.1164 95.1787 50.3752 95.3928 50.5937C95.6069 50.8124 95.8622 50.9865 96.1438 51.1059C96.4254 51.2255 96.7279 51.2882 97.0338 51.2903C98.5483 51.2903 99.519 50.0978 99.519 48.1895C99.519 46.2813 98.5816 45.0696 97.0839 45.0696Z" fill="white"/>
<path d="M103.912 42.595H100.401V41.0208H109.106V42.595H105.617V52.5416H103.922L103.912 42.595Z" fill="white"/>
<path d="M108.855 43.8193H110.37V44.5349H110.403C110.749 43.9935 111.422 43.6643 112.23 43.6643C112.558 43.668 112.884 43.7121 113.201 43.7955L112.888 45.4079C112.594 45.3174 112.289 45.2677 111.982 45.2601C110.978 45.2601 110.468 45.9518 110.468 47.464V52.5423H108.855V43.8193Z" fill="white"/>
<path d="M114.14 43.8196H115.752V49.2008C115.752 50.5985 116.394 51.2903 117.71 51.2903C118.903 51.2903 119.702 50.4673 119.702 49.2008V43.8196H121.314V52.5425H119.769V51.7672H119.719C119.191 52.4089 118.237 52.7882 117.234 52.7882C115.275 52.7882 114.133 51.5956 114.133 49.4965L114.14 43.8196Z" fill="white"/>
<path d="M126.874 43.5702C127.802 43.5454 128.707 43.8552 129.425 44.4433C130.134 45.0236 130.595 45.8543 130.71 46.7641L129.162 47.0766C128.946 45.81 128.108 45.0682 126.874 45.0682C125.36 45.0682 124.389 46.2608 124.389 48.169C124.389 50.0773 125.36 51.2699 126.874 51.2699C128.108 51.2699 128.913 50.5543 129.162 49.2615L130.71 49.5763C130.595 50.4903 130.135 51.3257 129.425 51.9115C128.704 52.4945 127.8 52.7985 126.874 52.7679C124.457 52.7679 122.778 50.893 122.778 48.1595C122.778 45.4259 124.457 43.5702 126.874 43.5702Z" fill="white"/>
<path d="M132.113 40.5264H133.726V47.5033H133.759L137.139 43.818H139.311L136.101 47.2242L139.509 52.541H137.616L135.016 48.343H134.992L133.726 49.7263V52.541H132.113V40.5264Z" fill="white"/>
<path d="M140.455 40.6075H142.216V42.3035H140.455V40.6075ZM140.536 43.8182H142.144V52.541H140.531L140.536 43.8182Z" fill="white"/>
<path d="M143.96 43.8194H145.508V44.5922H145.541C145.854 44.2674 146.23 44.0095 146.646 43.8341C147.061 43.6586 147.509 43.5692 147.96 43.5713C149.951 43.5713 151.25 44.8713 151.25 46.9107V52.54H149.639V47.1588C149.639 45.8588 148.897 45.0693 147.647 45.0693C146.397 45.0693 145.574 45.9089 145.574 47.1588V52.5423H143.96V43.8194Z" fill="white"/>
<path d="M98.3934 0H91.7324V5.9441H98.3934V0Z" fill="white"/>
<path d="M83.0301 28.7712V14.4309H88.897V8.62037H83.0301V0H76.3524V8.61559H72.5605V14.4261H76.3548V34.7224H88.897V28.7592L83.0301 28.7712Z" fill="white"/>
<path d="M25.7402 8.61157H17.7627L5.83821 28.7695H0V34.7327H9.32254L19.0792 18.2242V34.7208H26.9493L36.6605 18.1766V34.7208H43.3383V8.61157H35.3249L25.7402 24.8028V8.61157Z" fill="white"/>
<path d="M98.3983 8.61157H91.7207V34.7208H98.3983V8.61396V8.61157Z" fill="white"/>
<path d="M98.3933 0H91.7324V5.94887H98.3933V0Z" fill="white"/>
<path d="M59.0118 8.30823H58.9616C51.7807 8.30823 46.0142 14.2714 46.0142 21.6658C46.0142 29.06 51.7807 35.0232 58.9616 35.0232H59.0118C66.195 35.0232 71.9092 29.0028 71.9092 21.6658C71.9092 14.3286 66.195 8.30823 59.0118 8.30823ZM59.0118 28.3445H58.9616C55.4225 28.3445 52.6918 25.3606 52.6918 21.6658C52.6918 17.971 55.4225 14.9871 58.9616 14.9871H59.0118C62.4508 14.9871 65.2387 18.0211 65.2387 21.6658C65.2339 25.3557 62.5032 28.3397 59.0118 28.3397V28.3445Z" fill="white"/>
<path d="M139.662 29.0934C142.346 29.0934 144.018 27.5264 144.473 26.1572H151.151C150.898 28.335 148.012 35.0208 139.658 35.0208C132.115 35.0208 126.542 29.3487 126.542 21.649C126.542 14.1043 132.265 8.27954 139.453 8.27954C146.288 8.27954 151.616 14.2546 151.616 21.5489C151.616 22.3073 151.566 23.0182 151.516 23.5238H133.39C133.841 26.7153 135.766 29.0934 139.662 29.0934ZM133.595 18.7628H145.044C144.327 16.1391 142.563 14.2046 139.474 14.2046C136.238 14.2046 134.353 16.0794 133.603 18.7628H133.595Z" fill="white"/>
<path d="M120.676 8.61889L114.313 25.6973L107.95 8.61889H100.81L110.91 34.7234H117.63L127.79 8.6332H120.676C120.676 8.6332 120.676 8.6165 120.676 8.61889Z" fill="white"/>
</svg>
