<svg width="110" height="14" viewBox="0 0 110 14" fill="none" xmlns="http://www.w3.org/2000/svg">
<path d="M9.26758 7.73041C9.26758 9.55318 7.906 10.6293 6.36872 10.6293C4.69968 10.6293 3.46985 9.42141 3.46985 7.73041V0.439331H0V7.57669C0 10.9148 2.28395 13.8137 6.39068 13.8137C10.6511 13.8137 12.9351 10.9148 12.9351 7.57669V0.439331H9.26758V7.73041Z" fill="white"/>
<path d="M22.2026 0.131714C17.7884 0.131714 15.6582 3.03058 15.6582 6.36867V13.506H19.15V6.21493C19.15 4.39216 20.5116 3.31607 22.0488 3.31607C23.7179 3.31607 24.9478 4.52393 24.9478 6.21493V13.506H28.4396V6.36867C28.5933 3.03058 26.3093 0.131714 22.2026 0.131714Z" fill="white"/>
<path d="M35.2916 13.5282V0.439331H31.7778V2.2621V13.5282H35.2916Z" fill="white"/>
<path d="M44.8663 8.34532L41.2207 0.439331H37.5752L43.6585 13.5282H46.0741L52.1574 0.439331H48.5119L44.8663 8.34532Z" fill="white"/>
<path d="M57.9552 13.5282V0.439331H54.4414V2.2621V13.5282H57.9552Z" fill="white"/>
<path d="M64.9392 4.08476C64.9392 3.46986 65.7078 3.03063 66.762 3.03063C67.6844 3.03063 68.5848 3.49181 69.3534 3.95299L71.0224 1.36158C70.1 0.746673 68.2773 0 66.6083 0C64.0169 0 61.5791 1.51532 61.5791 4.10672C61.5791 8.36718 67.9699 7.59854 67.9699 9.57504C67.9699 10.1899 67.2012 10.6292 66.3008 10.6292C64.9392 10.6292 63.5557 10.168 62.6553 9.26758L60.6787 12.0127C62.1941 13.0668 64.1706 13.8355 65.9933 13.8355C68.7384 13.8355 71.1542 12.3202 71.1542 9.72876C71.3299 5.16086 64.9392 5.90753 64.9392 4.08476Z" fill="white"/>
<path d="M77.5665 13.5282V0.439331H74.0747V2.2621V13.5282H77.5665Z" fill="white"/>
<path d="M87.1418 0.131714C83.1888 0.131714 80.1362 3.1843 80.1362 6.98358C80.1362 10.7828 83.1888 13.8355 87.1418 13.8355C91.0948 13.8355 94.1474 10.7828 94.1474 6.98358C94.1474 3.1843 91.0948 0.131714 87.1418 0.131714ZM87.1418 10.4754C85.1653 10.4754 83.6499 8.96007 83.6499 6.98358C83.6499 5.00707 85.0115 3.33803 87.1418 3.33803C89.272 3.33803 90.6336 5.00707 90.6336 6.98358C90.6336 8.96007 89.272 10.4754 87.1418 10.4754Z" fill="white"/>
<path d="M103.107 0.131714C98.847 0.131714 96.563 3.03058 96.563 6.36867V13.506H100.055V6.21493C100.055 4.39216 101.416 3.31607 102.954 3.31607C104.623 3.31607 105.853 4.52393 105.853 6.21493V13.506H109.498V6.36867C109.498 3.03058 107.214 0.131714 103.107 0.131714Z" fill="white"/>
</svg>
