<svg width="377" height="252" viewBox="0 0 377 252" fill="none" xmlns="http://www.w3.org/2000/svg">
<path d="M371.94 133.423C358.24 128.646 343.602 126.225 328.433 126.225C321.146 126.225 313.835 126.808 306.565 127.926C315.37 96.5971 314.948 64.0239 304.839 34.6321L303.087 29.5371L297.879 30.7914C274.047 36.5351 251.821 48.5318 232.921 65.3914C224.395 41.4623 210.628 20.1885 192.469 3.62043L188.501 0L184.531 3.62043C166.371 20.1885 152.604 41.4647 144.076 65.3962C144.076 65.395 144.076 65.3973 144.076 65.3962C125.179 48.5365 102.954 36.5351 79.1212 30.7914L73.9132 29.5371L72.1614 34.6321C62.0525 64.0228 61.6305 96.5958 70.4355 127.926C63.1661 126.808 55.855 126.225 48.5678 126.225C33.3986 126.225 18.7613 128.646 5.06031 133.423L0 135.187L1.24587 140.432C10.3263 178.631 36.8371 212.291 73.9829 232.783C96.7703 245.355 121.994 251.999 146.925 252C146.922 252 146.928 252 146.925 252C161.381 252 175.356 249.772 188.501 245.428C201.644 249.772 215.614 252 230.075 252C255.005 252 280.229 245.356 303.018 232.783C340.164 212.291 366.675 178.631 375.754 140.432L377 135.187L371.94 133.423ZM295.347 43.7604C303.549 71.31 302.754 101.617 293.41 130.564C280.356 133.79 267.578 138.774 255.487 145.443C250.169 148.377 245.078 151.589 240.219 155.037C241.988 144.966 242.905 134.605 242.905 124.07C242.905 108.154 240.816 92.6279 236.833 77.9106C236.832 77.9071 236.833 77.9142 236.833 77.9106C253.738 61.7366 273.763 49.9397 295.347 43.7604ZM188.499 16.2181C215.63 43.1511 231.085 82.1248 231.085 124.069C231.085 138.84 229.162 153.239 225.494 166.876C209.08 181.809 196.385 199.861 188.501 219.664C180.614 199.861 167.919 181.809 151.505 166.876C147.838 153.24 145.914 138.84 145.914 124.07C145.913 82.1248 161.369 43.1524 188.499 16.2181ZM81.6508 43.7604C103.235 49.941 123.256 61.7472 140.162 77.9213C136.18 92.635 134.091 108.158 134.091 124.07C134.091 134.603 135.008 144.966 136.778 155.037C131.917 151.589 126.826 148.377 121.509 145.443C109.418 138.774 96.6403 133.79 83.587 130.564C74.2442 101.616 73.4498 71.31 81.6508 43.7604ZM146.932 240.099C146.93 240.099 146.934 240.099 146.932 240.099C123.979 240.098 100.712 233.96 79.6603 222.345C47.1871 204.431 23.5664 175.727 14.1408 142.991C25.077 139.761 36.6304 138.126 48.5654 138.126C57.2333 138.126 65.945 139.004 74.5656 140.721C74.6342 140.733 74.7015 140.751 74.7701 140.764C75.9202 140.995 77.068 141.241 78.2146 141.503C79.0845 141.701 79.9522 141.917 80.8199 142.132C81.1756 142.221 81.5314 142.306 81.8872 142.396C82.9003 142.656 83.9108 142.929 84.9192 143.214C85.0799 143.26 85.2395 143.303 85.4003 143.349C86.5055 143.663 87.6083 143.99 88.7076 144.331C98.0067 147.216 107.109 151.072 115.829 155.882C148.302 173.798 171.923 202.5 181.351 235.235C170.413 238.464 158.863 240.099 146.932 240.099ZM297.338 222.347C276.283 233.961 253.025 240.1 230.074 240.1C218.139 240.1 206.584 238.465 195.648 235.234C205.074 202.499 228.696 173.795 261.169 155.881C269.888 151.071 278.992 147.214 288.289 144.329C289.391 143.988 290.495 143.661 291.6 143.346C291.759 143.301 291.917 143.257 292.075 143.213C293.085 142.928 294.098 142.655 295.112 142.394C295.466 142.303 295.82 142.218 296.173 142.131C297.042 141.915 297.913 141.699 298.784 141.501C299.929 141.24 301.076 140.994 302.223 140.763C302.293 140.75 302.361 140.733 302.431 140.72C311.052 139.004 319.764 138.125 328.432 138.125C340.366 138.125 351.92 139.76 362.857 142.99C353.43 175.727 329.811 204.432 297.338 222.347Z" fill="#FEFBF5" fill-opacity="0.05"/>
</svg>
