<svg width="107" height="504" viewBox="0 0 107 504" fill="none" xmlns="http://www.w3.org/2000/svg">
<path d="M105.856 500.875C105.856 498.318 103.71 496.187 101.135 496.187L6.00804 496.187C3.29011 496.187 1.14438 498.318 1.14438 500.875L1.14438 503.432C1.14438 503.716 0.858289 504 0.572191 504C0.286095 504 -1.24191e-08 503.716 -2.48375e-08 503.432L-1.15492e-06 477.578C-1.55232e-06 468.487 7.58155 461.1 16.7366 461.1L37.3357 461.1C46.6337 461.1 54.0723 468.487 54.0723 477.578L54.0723 485.249L101.135 485.249C103.71 485.249 105.856 483.118 105.856 480.561L105.856 478.004C105.856 477.72 106.142 477.436 106.428 477.436C106.714 477.436 107 477.72 107 478.004L107 503.432C107 503.716 106.714 504 106.428 504C106.142 504 105.856 503.716 105.856 503.432L105.856 500.875ZM1.14437 483.118L1.14437 485.249L52.9279 485.249L52.9279 483.118C52.9279 476.868 47.9213 471.896 41.77 471.896L12.4452 471.896C6.15106 471.896 1.14437 476.868 1.14437 483.118ZM95.5562 425.871C102.566 428.144 107 433.542 107 440.645C107 446.185 104.854 451.157 101.278 453.998C97.702 456.697 92.8383 457.549 87.4026 456.271C77.1029 453.856 73.813 443.77 70.6657 434.111C69.8075 431.27 68.8063 428.286 67.6619 425.445C63.9426 416.496 54.6444 416.212 53.9291 416.212C46.7766 416.212 39.1954 420.616 39.1954 432.832C39.1954 440.929 43.7729 447.321 50.2101 449.026C49.4948 448.174 48.9224 447.037 48.9224 445.759C48.9224 443.06 51.2112 440.787 53.9291 440.787C56.6472 440.787 58.936 443.06 58.936 445.759C58.936 448.458 56.6472 450.731 53.9291 450.731C44.9173 450.731 38.0507 443.06 38.0507 432.832C38.0507 422.036 44.202 415.076 53.7861 414.934L101.135 414.934C103.71 414.934 105.856 412.945 105.856 410.246L105.856 407.831C105.856 407.405 106.142 407.263 106.428 407.263C106.714 407.263 107 407.405 107 407.831L107 415.644C107 421.184 102.422 425.871 96.7006 425.871L95.5562 425.871ZM105.856 440.645C105.856 430.417 96.8435 425.871 87.8317 425.871L68.9493 425.871C70.0936 428.429 70.9519 431.127 71.8101 433.826C74.9573 443.628 78.1043 452.861 87.5455 455.134C92.8383 456.271 97.2729 455.702 100.563 453.003C103.853 450.447 105.856 445.901 105.856 440.645ZM38.0507 384.676C38.0507 377.858 43.6296 372.318 50.353 372.318L53.9291 372.318C56.6472 372.318 58.936 374.591 58.936 377.29C58.936 379.989 56.6472 382.262 53.9291 382.262C51.2112 382.262 48.9224 379.989 48.9224 377.29C48.9224 375.727 49.6377 374.449 50.7821 373.454L50.353 373.454C44.202 373.454 39.1954 378.426 39.1954 384.535C39.1954 390.785 44.202 395.756 50.353 395.756L101.135 395.756C103.71 395.756 105.856 393.626 105.856 391.069L105.856 388.512C105.856 388.228 106.142 387.944 106.428 387.944C106.714 387.944 107 388.228 107 388.512L107 413.797C107 414.081 106.714 414.365 106.428 414.365C106.142 414.365 105.856 414.081 105.856 413.797L105.856 411.24C105.856 408.683 103.71 406.552 101.135 406.552L53.7861 406.552C53.6432 406.552 53.357 406.41 53.357 406.268C49.4948 397.035 38.766 396.893 38.623 396.893C38.3368 396.893 38.0507 396.609 38.0507 396.325C38.0507 396.041 38.3368 395.756 38.623 395.756L45.2031 395.756C40.9118 393.768 38.0507 389.648 38.0507 384.676ZM105.856 348.453C105.856 348.169 106.142 347.885 106.428 347.885C106.714 347.885 107 348.169 107 348.453L107 373.88C107 374.165 106.714 374.449 106.428 374.449C106.142 374.449 105.856 374.165 105.856 373.88L105.856 371.324C105.856 368.767 103.71 366.636 101.135 366.636L53.6432 366.636C53.357 366.636 53.2138 366.494 53.0709 366.21C49.3516 356.976 38.4801 356.976 38.3368 356.976C38.0507 356.976 37.7648 356.692 37.7648 356.408C37.7648 355.982 38.0507 355.84 38.3368 355.698L101.135 355.698C103.71 355.698 105.856 353.709 105.856 351.01L105.856 348.453ZM29.6109 361.238C29.6109 364.221 27.1792 366.636 24.3182 366.636C21.3142 366.636 18.8824 364.221 18.8824 361.238C18.8824 358.397 21.3142 355.982 24.3182 355.982C27.1792 355.982 29.6109 358.397 29.6109 361.238ZM88.8329 338.083C91.5507 338.083 93.8398 340.214 93.8398 342.913C93.8398 344.192 93.2674 345.328 92.5522 346.322C100.134 344.334 105.856 336.663 105.856 327.429L105.856 327.003C105.856 319.474 103.996 314.219 100.42 311.377C98.7032 309.957 96.8435 309.389 94.9842 309.673C91.8369 310.241 88.547 313.366 84.9706 319.048C80.3931 326.577 75.1003 336.379 74.9573 336.521C70.2366 344.05 64.0856 347.885 56.3611 347.885L56.2178 347.885C45.2031 347.885 38.0507 339.93 38.0507 327.429C38.0507 321.889 39.7674 317.202 42.3423 313.65C42.4853 313.65 42.4853 313.65 42.4853 313.509L43.6296 311.52C43.9158 310.809 43.9158 309.957 43.4867 309.247C43.0576 308.536 42.3423 308.253 41.6271 308.253L38.623 308.253C38.3368 308.253 38.0507 307.968 38.0507 307.684C38.0507 307.258 38.3368 307.116 38.623 307.116L53.7861 307.116C54.2152 307.116 54.3582 307.258 54.3582 307.684C54.3582 307.968 54.2152 308.253 53.7861 308.253C46.9199 308.253 39.1954 316.065 39.1954 327.429C39.1954 333.822 41.1979 338.936 44.6311 342.345C46.9199 343.908 49.2086 344.476 51.3544 343.908C55.932 343.055 59.2219 338.509 60.9386 335.953L72.0962 316.776C75.3864 311.094 79.964 307.542 85.2568 306.406C90.1205 305.269 95.4133 306.548 99.9908 309.673C100.42 309.957 100.849 310.099 101.135 310.525C104.997 313.509 107 319.048 107 327.003L107 327.429C107 338.794 98.8464 347.885 88.8329 347.885C86.115 347.885 83.9695 345.612 83.9695 342.913C83.9695 340.214 86.115 338.083 88.8329 338.083ZM95.5562 270.751C102.566 273.024 107 278.421 107 285.524C107 291.064 104.854 296.036 101.278 298.877C97.702 301.576 92.8383 302.428 87.4026 301.15C77.1029 298.735 73.813 288.649 70.6657 278.99C69.8075 276.149 68.8063 273.166 67.6619 270.324C63.9426 261.375 54.6443 261.091 53.9291 261.091C46.7766 261.091 39.1953 265.495 39.1953 277.711C39.1953 285.808 43.7729 292.201 50.2101 293.905C49.4948 293.053 48.9224 291.916 48.9224 290.638C48.9224 287.939 51.2112 285.666 53.9291 285.666C56.6472 285.666 58.936 287.939 58.936 290.638C58.936 293.337 56.6472 295.61 53.9291 295.61C44.9173 295.61 38.0507 287.939 38.0507 277.711C38.0507 266.915 44.202 259.955 53.7861 259.813L101.135 259.813C103.71 259.813 105.856 257.824 105.856 255.125L105.856 252.71C105.856 252.284 106.142 252.142 106.428 252.142C106.714 252.142 107 252.284 107 252.71L107 260.523C107 266.063 102.422 270.751 96.7006 270.751L95.5562 270.751ZM105.856 285.524C105.856 275.296 96.8435 270.751 87.8317 270.751L68.9493 270.751C70.0936 273.308 70.9519 276.007 71.8101 278.706C74.9573 288.507 78.1043 297.741 87.5455 300.013C92.8383 301.15 97.2729 300.582 100.563 297.883C103.853 295.326 105.856 290.78 105.856 285.524ZM107 183.955C107 184.239 106.714 184.523 106.428 184.523C106.142 184.523 105.856 184.239 105.856 183.955L105.856 181.4C105.856 178.842 103.71 176.71 101.135 176.71L54.0723 176.71L54.0723 195.036L101.135 195.036C103.71 195.036 105.856 192.905 105.856 190.35L105.856 187.792C105.856 187.508 106.142 187.223 106.428 187.223C106.714 187.223 107 187.508 107 187.792L107 213.217C107 213.502 106.714 213.786 106.428 213.786C106.142 213.786 105.856 213.502 105.856 213.217L105.856 210.662C105.856 208.105 103.71 205.973 101.135 205.973L6.00803 205.973C3.2901 205.973 1.14436 208.105 1.14436 210.662L1.14436 213.217C1.14436 213.502 0.858276 213.786 0.572178 213.786C0.286083 213.786 -1.26981e-05 213.502 -1.27105e-05 213.217L-1.38219e-05 187.792C-1.38343e-05 187.508 0.286082 187.223 0.572177 187.223C0.858275 187.223 1.14436 187.508 1.14436 187.792L1.14436 190.35C1.14436 192.905 3.2901 195.036 6.00803 195.036L52.9279 195.036L52.9279 176.71L6.00803 176.71C3.2901 176.71 1.14436 178.842 1.14436 181.4L1.14436 183.955C1.14436 184.239 0.858275 184.523 0.572177 184.523C0.286081 184.523 -1.39772e-05 184.239 -1.39896e-05 183.955L-1.5101e-05 158.529C-1.51134e-05 158.245 0.28608 157.961 0.572176 157.961C0.858274 157.961 1.14436 158.245 1.14436 158.529L1.14436 161.087C1.14436 163.642 3.2901 165.774 6.00802 165.774L101.135 165.774C103.71 165.774 105.856 163.642 105.856 161.087L105.856 158.529C105.856 158.245 106.142 157.961 106.428 157.961C106.714 157.961 107 158.245 107 158.529L107 183.955ZM38.0507 136.085C38.0507 126.993 45.4893 119.606 54.6443 119.606L90.4063 119.606C99.5617 119.606 107 126.993 107 136.085L107 141.482C107 150.574 99.5617 157.961 90.4063 157.961L54.6443 157.961C45.4893 157.961 38.0507 150.574 38.0507 141.482L38.0507 136.085ZM90.4063 120.743L54.6443 120.743C46.2046 120.743 39.1953 127.561 39.1953 136.085C39.1953 142.192 44.202 147.163 50.353 147.163L94.698 147.163C100.849 147.163 105.856 142.192 105.856 136.085C105.856 127.561 98.8464 120.743 90.4063 120.743ZM105.856 65.0595C105.856 64.6332 106.142 64.4911 106.428 64.4911C106.714 64.4911 107 64.6332 107 65.0595L107 72.8726C107 78.4119 102.422 82.9564 96.7006 82.9564L50.353 82.9564C44.4879 82.9564 39.1953 87.646 39.1953 93.4695C39.1953 99.2931 44.4879 103.838 50.353 103.838L101.135 103.838C103.71 103.838 105.856 101.709 105.856 99.151L105.856 96.593C105.856 96.3088 106.142 96.0246 106.428 96.0246C106.714 96.0246 107 96.3088 107 96.593L107 121.88C107 122.164 106.714 122.448 106.428 122.448C106.142 122.448 105.856 122.164 105.856 121.88L105.856 119.322C105.856 116.767 103.71 114.635 101.135 114.635L53.7861 114.635C53.6432 114.635 53.357 114.493 53.357 114.351C49.4948 105.117 38.7659 104.975 38.623 104.975C38.3368 104.975 38.0507 104.69 38.0507 104.406C38.0507 104.122 38.3368 103.838 38.623 103.838L45.2031 103.838C41.3409 102.135 38.0507 98.4404 38.0507 94.038L38.0507 88.6379C38.0507 81.6775 42.4853 75.5697 48.9224 73.2989C43.2005 72.5883 38.0507 68.0409 38.0507 62.5016L38.0507 57.1043C38.0507 48.0123 45.4893 40.6256 54.6443 40.6256L101.278 40.6256C103.853 40.4835 105.856 38.3518 105.856 35.9389L105.856 33.381C105.856 33.0968 106.142 32.8126 106.428 32.8126C106.714 32.8126 107 33.0968 107 33.381L107 41.194C107 46.8755 102.422 51.4229 96.7006 51.4229L50.353 51.4229C44.4878 51.4229 39.1953 55.9675 39.1953 61.791C39.1953 67.6145 44.4879 72.162 50.353 72.162L101.278 72.162C103.853 72.162 105.856 70.0304 105.856 67.4724L105.856 65.0595ZM73.0977 2.73224e-05L73.0977 22.0181L94.698 22.0181C100.563 22.0181 105.427 17.3285 105.856 11.6471C105.569 7.10253 102.566 3.40771 98.5602 1.84454C99.2755 2.69717 99.7046 3.83404 99.7046 4.97091C99.7046 7.67099 97.4158 9.94183 94.698 9.94183C91.9801 9.94183 89.6913 7.67099 89.6913 4.97091C89.6913 2.27087 91.9801 2.6497e-05 94.698 2.63782e-05C100.992 2.61031e-05 106.285 4.82882 107 10.9366L107 16.3338C107 25.4258 99.5617 32.8126 90.4063 32.8126L54.6443 32.8126C45.4893 32.8126 38.0507 25.4258 38.0507 16.3338L38.0507 10.9366C38.7659 4.82883 44.0587 2.85917e-05 50.353 2.83166e-05L73.0977 2.73224e-05ZM50.353 1.134C44.4878 1.134 39.6244 5.82358 39.1953 11.6471C39.6244 17.3286 44.4878 22.0181 50.353 22.0181L71.9533 22.0181L71.9533 1.134L50.353 1.134Z" fill="white" fill-opacity="0.2"/>
</svg>
