<svg width="146" height="12" viewBox="0 0 146 12" fill="none" xmlns="http://www.w3.org/2000/svg">
<path d="M0 9.4421V2.5421C0 1.1842 1.08562 0.0631608 2.4349 0.0631608H7.50627V0.568422C7.50627 0.678948 7.42874 0.757897 7.32017 0.757897H2.4349C1.53537 0.757897 0.806452 1.5 0.806452 2.41578V9.5842C0.806452 10.5 1.53537 11.2421 2.4349 11.2421H7.32017C7.42874 11.2421 7.50627 11.321 7.50627 11.4158V11.9211H2.4349C1.08562 11.9211 0 10.8158 0 9.4421ZM15.1676 6.36315L17.5871 11.9211H16.8736C16.7805 11.9211 16.6721 11.8579 16.641 11.7632L14.2681 6.33157H10.4374C10.2203 6.33157 10.0497 6.22104 10.0032 6.07895V11.7474C10.0032 11.8421 9.92565 11.9211 9.8326 11.9211H9.19673V0.536842C9.19673 0.284212 9.39835 0.0789488 9.6465 0.0789488H14.966C16.2998 0.0789488 17.4009 1.1842 17.4009 2.55789V3.93158C17.4009 5.05264 16.4239 6.36315 15.1676 6.36315ZM10.2824 5.65263H14.966C15.8655 5.65263 16.5945 4.91053 16.5945 3.99474V2.41578C16.5945 1.5 15.8655 0.757897 14.966 0.757897H10.1738C10.0807 0.757897 10.0032 0.836846 10.0032 0.931585V5.3842C10.0032 5.52631 10.1273 5.65263 10.2824 5.65263ZM21.2625 0.757897C20.363 0.757897 19.634 1.5 19.634 2.41578V5.8579C19.7116 5.73158 19.8823 5.63684 20.0683 5.63684H26.0238V6.15788C26.0238 6.26841 25.9462 6.34736 25.8531 6.34736H19.634V9.5842C19.634 10.5 20.363 11.2421 21.2625 11.2421H26.2719C26.3805 11.2421 26.4581 11.321 26.4581 11.4316V11.9211H21.2625C19.9133 11.9211 18.8277 10.8158 18.8277 9.4421V2.5421C18.8277 1.1842 19.9133 0.0631608 21.2625 0.0631608H26.4581V0.568422C26.4581 0.678948 26.3805 0.757897 26.2719 0.757897H21.2625ZM31.0951 0.521053C31.1882 0.268422 31.4673 0.0631608 31.7309 0.0631608H33.8092L37.9189 11.9211H37.3141C37.2057 11.9211 37.0971 11.8421 37.066 11.7474L35.9493 8.46315H29.1254L28.0089 11.7474C27.9779 11.8421 27.8693 11.9211 27.7608 11.9211H27.1558L31.0951 0.521053ZM31.7001 0.915795L29.3582 7.78421H35.7167L33.313 0.757897H31.9327C31.824 0.757897 31.7309 0.821056 31.7001 0.915795ZM42.1839 0.757897H38.4774V0.236843C38.4774 0.142106 38.555 0.0789488 38.6479 0.0789488H46.728V0.584212C46.728 0.678948 46.6506 0.757897 46.5574 0.757897H42.9904V11.7474C42.9904 11.8421 42.9128 11.9211 42.8197 11.9211H42.1839V0.757897ZM47.9998 11.7474V0.0631608H48.6357C48.7286 0.0631608 48.8062 0.142106 48.8062 0.236843V11.9211H48.1704C48.0772 11.9211 47.9998 11.8421 47.9998 11.7474ZM58.4992 0.252632C58.4992 0.157896 58.5768 0.0789488 58.6699 0.0789488H59.3057V11.9211H58.4062C58.3597 11.9211 58.2511 11.9211 58.158 11.7632L52.4508 1.23157C52.2956 0.947374 51.9855 0.757897 51.6908 0.757897H51.5513V11.7474C51.5513 11.8421 51.4738 11.9211 51.3806 11.9211H50.7448V0.236843C50.7448 0.142106 50.8224 0.0631608 50.9155 0.0631608H51.9391C52.3267 0.0631608 52.8386 0.378949 53.0091 0.726318L58.4992 10.9105V0.252632ZM61.1978 2.47894C61.1978 1.10527 62.2834 0 63.6327 0H68.9211V0.505265C68.9211 0.600001 68.8437 0.678948 68.7506 0.678948H63.6327C62.7331 0.678948 62.0043 1.42105 62.0043 2.33684V9.64736C62.0043 10.5632 62.7331 11.3053 63.6327 11.3053H67.0446C67.9442 11.3053 68.673 10.5632 68.673 9.64736V6.23683H65.7729C65.6798 6.23683 65.6023 6.15788 65.6023 6.06316V5.5421H69.3244C69.4175 5.5421 69.4795 5.62105 69.4795 5.71579V9.52105C69.4795 10.8789 68.3939 12 67.0446 12H63.6327C62.2834 12 61.1978 10.8789 61.1978 9.52105V2.47894ZM76.7377 9.4421V2.5421C76.7377 1.1842 77.8232 0.0631608 79.1725 0.0631608H84.244V0.568422C84.244 0.678948 84.1664 0.757897 84.0578 0.757897H79.1725C78.273 0.757897 77.5441 1.5 77.5441 2.41578V9.5842C77.5441 10.5 78.273 11.2421 79.1725 11.2421H84.0578C84.1664 11.2421 84.244 11.321 84.244 11.4158V11.9211H79.1725C77.8232 11.9211 76.7377 10.8158 76.7377 9.4421ZM88.3538 12C87.0045 12 85.9188 10.8789 85.9188 9.52105V2.47894C85.9188 1.12106 87.0045 0 88.3538 0H92.0759C93.4097 0 94.5107 1.12106 94.5107 2.47894V9.52105C94.5107 10.8789 93.4097 12 92.0759 12H88.3538ZM88.3538 0.694738C87.4543 0.694738 86.7253 1.43684 86.7253 2.35263V9.64736C86.7253 10.5632 87.4543 11.3053 88.3538 11.3053H92.0759C92.9754 11.3053 93.7044 10.5632 93.7044 9.64736V2.35263C93.7044 1.43684 92.9754 0.694738 92.0759 0.694738H88.3538ZM106.375 0.157896C106.391 0.126316 106.468 0.0789488 106.499 0.0789488H107.492V11.9211H106.856C106.763 11.9211 106.685 11.8421 106.685 11.7474V1.13685C106.685 1.13685 103.118 7.62631 102.513 8.7C102.467 8.77894 102.358 8.8421 102.265 8.8421H101.598C101.505 8.8421 101.381 8.77894 101.335 8.7L97.1783 1.13685V11.7474C97.1783 11.8421 97.1007 11.9211 97.0076 11.9211H96.3717V0.0789488H97.3643C97.3953 0.0789488 97.4729 0.126316 97.4884 0.157896L101.939 8.13157L106.375 0.157896ZM111.834 0.0631608H117.03V0.584212C117.03 0.678948 116.952 0.757897 116.859 0.757897H111.834C110.935 0.757897 110.206 1.5 110.206 2.41578V5.79474C110.299 5.7 110.438 5.63684 110.593 5.63684H116.688V6.15788C116.688 6.26841 116.595 6.34736 116.502 6.34736H110.206V11.7474C110.206 11.8421 110.128 11.9211 110.035 11.9211H109.399V2.5421C109.399 1.1842 110.485 0.0631608 111.834 0.0631608ZM120.752 12C119.402 12 118.317 10.8789 118.317 9.52105V2.47894C118.317 1.12106 119.402 0 120.752 0H124.474C125.808 0 126.909 1.12106 126.909 2.47894V9.52105C126.909 10.8789 125.808 12 124.474 12H120.752ZM120.752 0.694738C119.852 0.694738 119.123 1.43684 119.123 2.35263V9.64736C119.123 10.5632 119.852 11.3053 120.752 11.3053H124.474C125.373 11.3053 126.102 10.5632 126.102 9.64736V2.35263C126.102 1.43684 125.373 0.694738 124.474 0.694738H120.752ZM134.741 6.36315L137.16 11.9211H136.447C136.354 11.9211 136.245 11.8579 136.214 11.7632L133.841 6.33157H130.01C129.793 6.33157 129.623 6.22104 129.576 6.07895V11.7474C129.576 11.8421 129.499 11.9211 129.406 11.9211H128.77V0.536842C128.77 0.284212 128.971 0.0789488 129.22 0.0789488H134.539C135.873 0.0789488 136.974 1.1842 136.974 2.55789V3.93158C136.974 5.05264 135.997 6.36315 134.741 6.36315ZM129.855 5.65263H134.539C135.439 5.65263 136.167 4.91053 136.167 3.99474V2.41578C136.167 1.5 135.439 0.757897 134.539 0.757897H129.747C129.654 0.757897 129.576 0.836846 129.576 0.931585V5.3842C129.576 5.52631 129.7 5.65263 129.855 5.65263ZM141.456 0.757897H137.749V0.236843C137.749 0.142106 137.827 0.0789488 137.92 0.0789488H146V0.584212C146 0.678948 145.923 0.757897 145.829 0.757897H142.262V11.7474C142.262 11.8421 142.185 11.9211 142.092 11.9211H141.456V0.757897Z" fill="white"/>
</svg>
