<svg width="152" height="57" viewBox="0 0 152 57" fill="none" xmlns="http://www.w3.org/2000/svg">
<path d="M0 41.0207H7.07597V42.595H1.70043V46.2993H6.65385V47.7949H1.70043V52.5415H0V41.0207Z" fill="black"/>
<path d="M12.0878 43.5713C14.5728 43.5713 16.2494 45.4318 16.2494 48.1796C16.2494 50.9274 14.5799 52.7879 12.0878 52.7879C9.59558 52.7879 7.92378 50.9274 7.92378 48.1796C7.92378 45.4318 9.60273 43.5713 12.0878 43.5713ZM12.0878 45.0693C10.5066 45.0693 9.53595 46.2619 9.53595 48.1701C9.53595 50.0782 10.5066 51.2709 12.0878 51.2709C13.6689 51.2709 14.6372 50.0782 14.6372 48.1701C14.6372 46.2619 13.6666 45.0693 12.0878 45.0693Z" fill="black"/>
<path d="M17.7056 43.8194H19.22V44.5349H19.2534C19.5992 43.9935 20.2741 43.6644 21.0803 43.6644C21.408 43.668 21.7339 43.7122 22.0509 43.7955L21.7385 45.408C21.4445 45.3175 21.1396 45.2677 20.8322 45.2601C19.8281 45.2601 19.3177 45.9518 19.3177 47.4641V52.5424H17.7056V43.8194Z" fill="black"/>
<path d="M23.062 43.8199H24.6099V44.5045H24.6408C24.9152 44.2024 25.2511 43.9623 25.6257 43.8007C26.0005 43.6391 26.4054 43.5593 26.8135 43.567C27.248 43.5595 27.6783 43.6538 28.0697 43.8428C28.4611 44.0317 28.8028 44.3098 29.0672 44.6548H29.091C29.389 44.3151 29.7557 44.0424 30.1668 43.855C30.5778 43.6674 31.0241 43.5694 31.4759 43.567C33.2527 43.567 34.5763 44.8027 34.5763 46.5463V52.5429H32.9952V46.8182C32.9952 45.7663 32.3202 45.0745 31.2852 45.0745C30.2502 45.0745 29.5728 45.8163 29.5728 46.9184V52.5477H28.0655V46.823C28.0655 45.7711 27.374 45.0793 26.3699 45.0793C25.3158 45.0793 24.6408 45.8211 24.6408 46.9232V52.5524H23.062V43.8199Z" fill="black"/>
<path d="M40.0671 43.5713C42.4353 43.5713 44.0165 45.365 44.0165 47.9816V48.6567H37.6441C37.6353 49.3658 37.8805 50.0545 38.3356 50.5983C38.5486 50.8461 38.8147 51.043 39.1139 51.1743C39.4132 51.3055 39.7381 51.368 40.0647 51.3568C41.1665 51.3568 41.8248 50.9274 42.5497 49.7611L43.7995 50.5983C43.0267 52.0485 41.7437 52.7879 40.0814 52.7879C37.6607 52.7879 36.0271 50.9274 36.0271 48.1796C36.0271 45.4318 37.6822 43.5713 40.0671 43.5713ZM42.4185 47.4235C42.3542 45.9923 41.4479 45.0025 40.0671 45.0025C39.4329 45.0167 38.8291 45.2775 38.3839 45.7294C37.9387 46.1813 37.687 46.789 37.6822 47.4235H42.4185Z" fill="black"/>
<path d="M45.4721 43.8194H46.9817V44.5349H47.0152C47.361 43.9935 48.0359 43.6644 48.842 43.6644C49.1696 43.668 49.4957 43.7122 49.8127 43.7955L49.5001 45.408C49.2071 45.3177 48.903 45.2679 48.5963 45.2601C47.5923 45.2601 47.0821 45.9518 47.0821 47.4641V52.5424H45.4674L45.4721 43.8194Z" fill="black"/>
<path d="M50.8264 40.5264H52.4387V52.541H50.8264V40.5264Z" fill="black"/>
<path d="M56.7419 51.8842L53.3864 43.8196H55.0798L57.5481 50.0213H57.5815L60.0833 43.8196H61.7717L56.587 56.2445H54.9175L56.7419 51.8842Z" fill="black"/>
<path d="M65.9503 41.0207H67.646V46.5999H67.6771L72.2369 41.0207H74.2618L70.0477 46.0895L74.6886 52.5415H72.6304L68.9959 47.3655H68.9625L67.646 48.978V52.5415H65.9503V41.0207Z" fill="black"/>
<path d="M78.645 43.5713C81.0156 43.5713 82.5943 45.365 82.5943 47.9816V48.6567H76.2267C76.2168 49.3659 76.4623 50.055 76.9184 50.5983C77.1306 50.8464 77.3961 51.0433 77.695 51.1747C77.994 51.306 78.3186 51.3682 78.645 51.3568C79.7468 51.3568 80.4051 50.9274 81.13 49.7611L82.3798 50.5983C81.607 52.0485 80.324 52.7879 78.6617 52.7879C76.2434 52.7879 74.6073 50.9274 74.6073 48.1796C74.6073 45.4318 76.2601 43.5713 78.645 43.5713ZM80.9988 47.4235C80.9321 45.9923 80.0282 45.0025 78.645 45.0025C78.0108 45.0167 77.4071 45.2775 76.9618 45.7294C76.5166 46.1813 76.265 46.789 76.2601 47.4235H80.9988Z" fill="black"/>
<path d="M87.7102 43.5713C90.0808 43.5713 91.6596 45.365 91.6596 47.9816V48.6567H85.2919C85.2831 49.3658 85.5284 50.0545 85.9835 50.5983C86.1961 50.8461 86.4616 51.0428 86.7605 51.1742C87.0593 51.3055 87.384 51.3678 87.7102 51.3568C88.8143 51.3568 89.4726 50.9274 90.1953 49.7611L91.4473 50.5983C90.6722 52.0485 89.3891 52.7879 87.7268 52.7879C85.3085 52.7879 83.6725 50.9274 83.6725 48.1796C83.6725 45.4318 85.3253 43.5713 87.7102 43.5713ZM90.0641 47.4235C89.9973 45.9923 89.0935 45.0025 87.7102 45.0025C87.076 45.0167 86.4722 45.2775 86.027 45.7294C85.5818 46.1813 85.3301 46.789 85.3253 47.4235H90.0641Z" fill="black"/>
<path d="M93.1175 43.8198H94.6966V44.6259H94.7299C95.048 44.2868 95.4333 44.018 95.8612 43.8364C96.289 43.6548 96.7502 43.5647 97.215 43.5717C99.4853 43.5717 101.131 45.4798 101.131 48.18C101.131 50.8801 99.4853 52.7883 97.2316 52.7883C96.7709 52.7951 96.3137 52.7063 95.889 52.5278C95.4642 52.3493 95.0809 52.0847 94.7633 51.7507H94.7299V56.2445H93.1175V43.8198ZM97.0838 45.0696C96.7756 45.0677 96.47 45.1267 96.1846 45.2434C95.8994 45.36 95.6398 45.5318 95.421 45.749C95.2023 45.9662 95.0287 46.2246 94.9101 46.5091C94.7915 46.7936 94.7302 47.0988 94.7299 47.4072V48.9385C94.7258 49.2445 94.7823 49.5482 94.896 49.8323C95.0097 50.1164 95.1786 50.3752 95.3927 50.5937C95.6068 50.8124 95.8621 50.9865 96.1437 51.1059C96.4253 51.2255 96.7277 51.2882 97.0337 51.2903C98.5481 51.2903 99.5188 50.0978 99.5188 48.1895C99.5188 46.2813 98.5815 45.0696 97.0838 45.0696Z" fill="black"/>
<path d="M103.912 42.595H100.401V41.0207H109.106V42.595H105.617V52.5415H103.922L103.912 42.595Z" fill="black"/>
<path d="M108.855 43.8194H110.37V44.5349H110.403C110.749 43.9935 111.421 43.6644 112.23 43.6644C112.558 43.668 112.884 43.7122 113.201 43.7955L112.888 45.408C112.594 45.3175 112.289 45.2677 111.982 45.2601C110.978 45.2601 110.467 45.9518 110.467 47.4641V52.5424H108.855V43.8194Z" fill="black"/>
<path d="M114.14 43.8196H115.752V49.2008C115.752 50.5985 116.394 51.2903 117.71 51.2903C118.903 51.2903 119.702 50.4673 119.702 49.2008V43.8196H121.314V52.5425H119.768V51.7673H119.718C119.191 52.409 118.237 52.7883 117.233 52.7883C115.275 52.7883 114.133 51.5956 114.133 49.4966L114.14 43.8196Z" fill="black"/>
<path d="M126.874 43.5702C127.802 43.5454 128.707 43.8552 129.425 44.4432C130.134 45.0235 130.595 45.8542 130.71 46.7641L129.162 47.0766C128.947 45.81 128.108 45.0682 126.874 45.0682C125.36 45.0682 124.39 46.2608 124.39 48.169C124.39 50.0773 125.36 51.2699 126.874 51.2699C128.108 51.2699 128.914 50.5542 129.162 49.2615L130.71 49.5763C130.595 50.4903 130.135 51.3257 129.425 51.9115C128.705 52.4945 127.8 52.7984 126.874 52.7679C124.457 52.7679 122.778 50.8929 122.778 48.1594C122.778 45.4259 124.457 43.5702 126.874 43.5702Z" fill="black"/>
<path d="M132.113 40.5264H133.726V47.5033H133.759L137.139 43.818H139.312L136.101 47.2242L139.51 52.541H137.616L135.016 48.343H134.992L133.726 49.7263V52.541H132.113V40.5264Z" fill="black"/>
<path d="M140.455 40.6076H142.216V42.3035H140.455V40.6076ZM140.536 43.8182H142.143V52.541H140.531L140.536 43.8182Z" fill="black"/>
<path d="M143.96 43.8194H145.508V44.5922H145.541C145.854 44.2674 146.23 44.0095 146.645 43.8341C147.061 43.6586 147.509 43.5692 147.96 43.5713C149.95 43.5713 151.25 44.8713 151.25 46.9107V52.5399H149.639V47.1588C149.639 45.8588 148.896 45.0693 147.647 45.0693C146.397 45.0693 145.574 45.9089 145.574 47.1588V52.5423H143.96V43.8194Z" fill="black"/>
<path d="M98.3935 0H91.7325V5.9441H98.3935V0Z" fill="black"/>
<path d="M83.0303 28.7712V14.4309H88.8972V8.62037H83.0303V0H76.3526V8.61559H72.5607V14.4261H76.3549V34.7224H88.8972V28.7592L83.0303 28.7712Z" fill="black"/>
<path d="M25.7402 8.61157H17.7627L5.83821 28.7695H0V34.7327H9.32254L19.0792 18.2242V34.7208H26.9493L36.6605 18.1766V34.7208H43.3383V8.61157H35.3249L25.7402 24.8028V8.61157Z" fill="black"/>
<path d="M98.3982 8.61157H91.7206V34.7208H98.3982V8.61396V8.61157Z" fill="black"/>
<path d="M98.3933 0H91.7325V5.94887H98.3933V0Z" fill="black"/>
<path d="M59.0119 8.30827H58.9618C51.7809 8.30827 46.0143 14.2714 46.0143 21.6658C46.0143 29.0601 51.7809 35.0233 58.9618 35.0233H59.0119C66.1951 35.0233 71.9094 29.0029 71.9094 21.6658C71.9094 14.3287 66.1951 8.30827 59.0119 8.30827ZM59.0119 28.3446H58.9618C55.4226 28.3446 52.6919 25.3606 52.6919 21.6658C52.6919 17.971 55.4226 14.9871 58.9618 14.9871H59.0119C62.4509 14.9871 65.2388 18.0212 65.2388 21.6658C65.2341 25.3557 62.5034 28.3398 59.0119 28.3398V28.3446Z" fill="black"/>
<path d="M139.663 29.0935C142.346 29.0935 144.018 27.5264 144.473 26.1572H151.151C150.898 28.335 148.012 35.0209 139.658 35.0209C132.115 35.0209 126.542 29.3488 126.542 21.6491C126.542 14.1044 132.265 8.27962 139.453 8.27962C146.288 8.27962 151.616 14.2547 151.616 21.5489C151.616 22.3074 151.566 23.0183 151.516 23.5239H133.39C133.841 26.7154 135.766 29.0935 139.663 29.0935ZM133.595 18.7629H145.044C144.327 16.1391 142.563 14.2047 139.474 14.2047C136.238 14.2047 134.353 16.0795 133.603 18.7629H133.595Z" fill="black"/>
<path d="M120.676 8.61896L114.313 25.6974L107.95 8.61896H100.81L110.91 34.7235H117.63L127.79 8.63328H120.676C120.676 8.63328 120.676 8.61658 120.676 8.61896Z" fill="black"/>
</svg>
