<svg width="114" height="30" viewBox="0 0 114 30" fill="none" xmlns="http://www.w3.org/2000/svg">
<g clip-path="url(#clip0_3_371)">
<path d="M76.5627 6.15125C74.5554 6.15125 73.0076 6.86656 71.5714 8.35949V6.49914H67.6293V24.805H71.8709V14.188C71.8709 11.7574 73.3183 10.2198 75.5144 10.2198C75.9135 10.2198 76.2632 10.2691 76.5125 10.3184L79.4565 6.44891C78.3087 6.25078 77.3106 6.15125 76.5618 6.15125H76.5627ZM113.142 6.49914H108.251L103.735 12.4699L99.219 6.49821H94.3282L101.228 15.7228L94.3282 24.805H99.3186L103.71 19.0137L108.101 24.805H113.142L106.195 15.7376L113.142 6.49914ZM24.0636 2.38125C22.6163 4.31602 22.2665 4.96063 20.8694 4.96063H0.00927734V29.7656H8.19389C10.0403 29.7656 11.8365 28.8727 12.9843 27.3844C14.4819 25.4003 14.6809 24.805 16.1283 24.805H37.0386V0H28.8038C26.9574 0 25.1612 0.892969 24.0627 2.38125H24.0636ZM30.5507 18.4054H21.8172C19.9206 18.4054 18.1747 19.1988 17.0268 20.7364C15.5293 22.7214 15.2297 23.3167 13.8326 23.3167H6.44702V11.4105H15.1804C17.0761 11.4105 18.823 10.5175 19.9708 9.02922C21.4684 7.09445 21.8675 6.49914 23.2144 6.49914H30.5507V18.4054ZM61.8902 12.3034C63.7375 11.2616 65.0341 9.42547 65.0341 6.99492C65.0341 3.42305 62.2901 0 58.2978 0H46.3209V24.805H58.2978C62.6389 24.805 65.6332 21.7289 65.6332 17.8594C65.6332 15.5777 64.5858 13.5927 61.8902 12.3034ZM50.5625 3.86953H57.9481C59.7945 3.86953 60.8921 5.60617 60.8921 7.14375C60.8921 9.02922 59.2457 10.3184 57.6988 10.3184H50.5625V3.86953ZM57.6988 20.9355H50.5625V14.188H57.9481C59.8447 14.188 61.3916 15.8251 61.3916 17.5124C61.3916 19.397 59.4456 20.9355 57.6988 20.9355Z" fill="black"/>
<path d="M90.0869 19.5461C89.3883 20.6381 88.0405 21.2827 86.5429 21.2827C84.1988 21.2827 82.252 19.6949 82.252 17.2644H94.9272C95.1272 16.5202 95.1765 16.1733 95.1765 15.5277C95.1765 9.97177 91.7333 6.15152 86.5438 6.15152C81.453 6.15152 77.8606 9.77364 77.8606 15.6765C77.8606 21.4315 81.3032 25.1522 86.6433 25.1522C90.3864 25.1522 93.6798 23.317 94.6277 19.5461H90.0869ZM86.5429 10.0211C88.8888 10.0211 90.6859 11.5094 90.6357 13.7418H82.3013C82.3013 11.5596 84.1988 10.0211 86.5429 10.0211Z" fill="black"/>
</g>
<defs>
<clipPath id="clip0_3_371">
<rect width="113.481" height="29.7656" fill="white" transform="translate(0.00927734)"/>
</clipPath>
</defs>
</svg>
