{
	"asset":{
		"version":"2.0",
		"generator":"Maxon Cinema 4D 2023.2.2 (#200000219)"
	},
	"buffers":[{
		"uri":"data:application/octet-stream;base64,",
		"byteLength":190496
	}],
	"scenes":[{
		"nodes":[0]
	}],
	"nodes":[{
		"name":"LOGO-MAIN2.ai",
		"translation":[0.0,
		0.11303617060184479,
		0.0],
		"rotation":[0.0,
		0.0,
		0.0,
		-1.0],
		"scale":[1.0,
		1.0,
		1.0],
		"children":[1]
	},
	{
		"name":"Null",
		"translation":[-0.17638881504535676,
		-0.17638884484767915,
		0.0],
		"rotation":[0.0,
		0.0,
		0.0,
		-1.0],
		"scale":[1.0,
		1.0,
		1.0],
		"children":[2]
	},
	{
		"name":"Layer 1",
		"translation":[0.17544613778591157,
		0.1687605082988739,
		0.0],
		"rotation":[0.0,
		0.0,
		0.0,
		-1.0],
		"scale":[1.0,
		1.0,
		1.0],
		"children":[3]
	},
	{
		"name":"Fill",
		"mesh":0,
		"translation":[-0.17544613778591157,
		-0.1687605082988739,
		0.0],
		"rotation":[0.0,
		0.0,
		0.0,
		-1.0],
		"scale":[1.0,
		1.0,
		1.0]
	}],
	"meshes":[{
		"name":"Fill",
		"primitives":[{
			"indices":0,
			"attributes":{
				"POSITION":1,
				"NORMAL":2,
				"TEXCOORD_0":3
			},
			"material":0
		}]
	}],
	"accessors":[{
		"bufferView":0,
		"type":"SCALAR",
		"componentType":5123,
		"count":19536,
		"byteOffset":0,
		"min":[0],
		"max":[4731]
	},
	{
		"bufferView":1,
		"type":"VEC3",
		"componentType":5126,
		"count":4732,
		"byteOffset":0,
		"min":[0.006059946026653051,
		0.06335267424583435,
		-0.054999999701976779],
		"max":[0.3467176854610443,
		0.2894250154495239,
		0.005000000819563866]
	},
	{
		"bufferView":1,
		"type":"VEC3",
		"componentType":5126,
		"count":4732,
		"byteOffset":12,
		"min":[-0.9999954700469971,
		-0.9999935626983643,
		-1.0],
		"max":[0.9999426007270813,
		0.9999499917030335,
		1.0]
	},
	{
		"bufferView":1,
		"type":"VEC2",
		"componentType":5126,
		"count":4732,
		"byteOffset":24,
		"min":[0.0,
		0.0],
		"max":[1.0,
		1.0]
	}],
	"bufferViews":[{
		"buffer":0,
		"byteOffset":0,
		"byteLength":39072,
		"target":34963
	},
	{
		"buffer":0,
		"byteOffset":39072,
		"byteLength":151424,
		"target":34962,
		"byteStride":32
	}],
	"materials":[{
		"pbrMetallicRoughness":{
			"baseColorFactor":[1.0,
			1.0,
			1.0,
			1.0],
			"metallicFactor":1.0,
			"roughnessFactor":0.05
		},
		"emissiveFactor":[0.0,
		0.0,
		0.0],
		"alphaMode":"OPAQUE",
		"doubleSided":false,
		"name":"Car Paint - Silver - Flakes"
	}]
}