<svg version="1.1" xmlns="http://www.w3.org/2000/svg" xmlns:xlink="http://www.w3.org/1999/xlink" width="104" height="58" viewBox="0,0,256,142.7625"><defs><clipPath id="clip-1"><rect x="16.0562" y="50.5477" width="71.3615" height="7.13615" id="clip0_174_113" fill="none"></rect></clipPath><clipPath id="clip-2"><rect x="35.0859" y="0" width="33.302" height="23.1925" id="clip1_174_113" fill="none"></rect></clipPath><clipPath id="clip-3"><rect x="0" y="25.5713" width="103.474" height="22.5978" id="clip2_174_113" fill="none"></rect></clipPath></defs><g fill="none" fill-rule="nonzero" stroke="none" stroke-width="1" stroke-linecap="butt" stroke-linejoin="miter" stroke-miterlimit="10" stroke-dasharray="" stroke-dashoffset="0" font-family="none" font-weight="none" font-size="none" text-anchor="none" style="mix-blend-mode: normal"><g transform="translate(0.64738,0.38574) scale(2.46154,2.46154)"><g clip-path="url(#clip-1)"><path d="M16.0562,55.6831v-3.329c0,-0.6551 0.5304,-1.1959 1.1897,-1.1959h2.478v0.2437c0,0.0533 -0.0379,0.0914 -0.091,0.0914h-2.387c-0.4395,0 -0.7957,0.3581 -0.7957,0.7999v3.4584c0,0.4419 0.3562,0.7999 0.7957,0.7999h2.387c0.0531,0 0.091,0.0381 0.091,0.0838v0.2438h-2.478c-0.6593,0 -1.1897,-0.5333 -1.1897,-1.196zM23.4674,54.1976l1.1821,2.6815h-0.3486c-0.0454,0 -0.0984,-0.0305 -0.1136,-0.0762l-1.1595,-2.6205h-1.8717c-0.1061,0 -0.1895,-0.0533 -0.2122,-0.1219v2.7348c0,0.0457 -0.0379,0.0838 -0.0833,0.0838h-0.3107v-5.4924c0,-0.1219 0.0985,-0.2209 0.2197,-0.2209h2.5993c0.6517,0 1.1897,0.5332 1.1897,1.196v0.6627c0,0.5409 -0.4774,1.1731 -1.0912,1.1731zM21.0803,53.8548h2.2886c0.4395,0 0.7957,-0.358 0.7957,-0.7998v-0.7618c0,-0.4418 -0.3562,-0.7999 -0.7957,-0.7999h-2.3416c-0.0455,0 -0.0834,0.0381 -0.0834,0.0838v2.1482c0,0.0686 0.0606,0.1295 0.1364,0.1295zM26.4454,51.4933c-0.4395,0 -0.7957,0.3581 -0.7957,0.7999v1.6607c0.0379,-0.061 0.1213,-0.1067 0.2122,-0.1067h2.91v0.2514c0,0.0533 -0.0379,0.0914 -0.0834,0.0914h-3.0388v1.5616c0,0.4419 0.3562,0.7999 0.7957,0.7999h2.4477c0.0531,0 0.091,0.0381 0.091,0.0914v0.2362h-2.5387c-0.6592,0 -1.1897,-0.5333 -1.1897,-1.196v-3.329c0,-0.6551 0.5305,-1.1959 1.1897,-1.1959h2.5387v0.2437c0,0.0533 -0.0379,0.0914 -0.091,0.0914zM31.2498,51.3791c0.0455,-0.1219 0.1819,-0.2209 0.3107,-0.2209h1.0155l2.0081,5.7209h-0.2955c-0.053,0 -0.1061,-0.0381 -0.1212,-0.0838l-0.5457,-1.5845h-3.3343l-0.5455,1.5845c-0.0152,0.0457 -0.0683,0.0838 -0.1213,0.0838h-0.2956zM31.5454,51.5695l-1.1442,3.3137h3.1069l-1.1746,-3.3899h-0.6744c-0.0531,0 -0.0986,0.0305 -0.1137,0.0762zM36.668,51.4933h-1.811v-0.2513c0,-0.0458 0.0379,-0.0762 0.0833,-0.0762h3.9481v0.2437c0,0.0457 -0.0379,0.0838 -0.0833,0.0838h-1.743v5.302c0,0.0457 -0.0379,0.0838 -0.0834,0.0838h-0.3107zM39.5098,56.7953v-5.6371h0.3107c0.0454,0 0.0833,0.038 0.0833,0.0838v5.6371h-0.3106c-0.0455,0 -0.0834,-0.0381 -0.0834,-0.0838zM44.64,51.2496c0,-0.0457 0.0379,-0.0838 0.0834,-0.0838h0.3107v5.7133h-0.4395c-0.0227,0 -0.0758,0 -0.1213,-0.0762l-2.7886,-5.081c-0.0759,-0.1371 -0.2274,-0.2286 -0.3714,-0.2286h-0.0681v5.302c0,0.0457 -0.0379,0.0838 -0.0834,0.0838h-0.3107v-5.6371c0,-0.0458 0.0379,-0.0838 0.0834,-0.0838h0.5001c0.1894,0 0.4395,0.1523 0.5228,0.3199l2.6826,4.9134zM45.9586,52.3237c0,-0.6628 0.5305,-1.196 1.1898,-1.196h2.584v0.2438c0,0.0457 -0.0378,0.0837 -0.0833,0.0837h-2.5007c-0.4396,0 -0.7957,0.3581 -0.7957,0.7999v3.527c0,0.4418 0.3561,0.7999 0.7957,0.7999h1.6671c0.4396,0 0.7957,-0.3581 0.7957,-0.7999v-1.6454h-1.4171c-0.0455,0 -0.0833,-0.0381 -0.0833,-0.0838v-0.2514h1.8186c0.0455,0 0.0758,0.0381 0.0758,0.0838v1.8359c0,0.6551 -0.5304,1.1959 -1.1897,1.1959h-1.6671c-0.6593,0 -1.1898,-0.5408 -1.1898,-1.1959zM53.5517,55.6831v-3.329c0,-0.6551 0.5304,-1.1959 1.1897,-1.1959h2.4781v0.2437c0,0.0533 -0.038,0.0914 -0.091,0.0914h-2.3871c-0.4395,0 -0.7957,0.3581 -0.7957,0.7999v3.4584c0,0.4419 0.3562,0.7999 0.7957,0.7999h2.3871c0.053,0 0.091,0.0381 0.091,0.0838v0.2438h-2.4781c-0.6593,0 -1.1897,-0.5333 -1.1897,-1.196zM59.2276,56.9171c-0.6593,0 -1.1898,-0.5408 -1.1898,-1.1959v-3.3975c0,-0.6552 0.5305,-1.196 1.1898,-1.196h1.8187c0.6517,0 1.1897,0.5408 1.1897,1.196v3.3975c0,0.6551 -0.538,1.1959 -1.1897,1.1959zM59.2276,51.4629c-0.4395,0 -0.7957,0.358 -0.7957,0.7998v3.5194c0,0.4418 0.3562,0.7999 0.7957,0.7999h1.8187c0.4395,0 0.7957,-0.3581 0.7957,-0.7999v-3.5194c0,-0.4418 -0.3562,-0.7998 -0.7957,-0.7998zM68.0331,51.2039c0.0076,-0.0153 0.0454,-0.0381 0.0606,-0.0381h0.485v5.7133h-0.3107c-0.0454,0 -0.0833,-0.0381 -0.0833,-0.0838v-5.1191c0,0 -1.7429,3.1308 -2.0385,3.6488c-0.0227,0.0381 -0.0758,0.0686 -0.1213,0.0686h-0.3258c-0.0454,0 -0.1061,-0.0305 -0.1288,-0.0686l-2.0309,-3.6488v5.1191c0,0.0457 -0.0379,0.0838 -0.0834,0.0838h-0.3107v-5.7133h0.485c0.0152,0 0.0531,0.0228 0.0607,0.0381l2.1748,3.8469zM70.7005,51.1582h2.5386v0.2513c0,0.0457 -0.0379,0.0838 -0.0833,0.0838h-2.4553c-0.4395,0 -0.7956,0.3581 -0.7956,0.7999v1.6302c0.0455,-0.0457 0.1136,-0.0762 0.1894,-0.0762h2.9781v0.2514c0,0.0533 -0.0455,0.0914 -0.0909,0.0914h-3.0766v2.6053c0,0.0457 -0.038,0.0838 -0.0834,0.0838h-0.3107v-4.525c0,-0.6551 0.5304,-1.1959 1.1897,-1.1959zM75.0579,56.9171c-0.6593,0 -1.1898,-0.5408 -1.1898,-1.1959v-3.3975c0,-0.6552 0.5305,-1.196 1.1898,-1.196h1.8186c0.6517,0 1.1898,0.5408 1.1898,1.196v3.3975c0,0.6551 -0.5381,1.1959 -1.1898,1.1959zM75.0579,51.4629c-0.4396,0 -0.7957,0.358 -0.7957,0.7998v3.5194c0,0.4418 0.3561,0.7999 0.7957,0.7999h1.8186c0.4396,0 0.7957,-0.3581 0.7957,-0.7999v-3.5194c0,-0.4418 -0.3561,-0.7998 -0.7957,-0.7998zM81.8932,54.1976l1.182,2.6815h-0.3485c-0.0454,0 -0.0985,-0.0305 -0.1137,-0.0762l-1.1593,-2.6205h-1.8719c-0.106,0 -0.1893,-0.0533 -0.2121,-0.1219v2.7348c0,0.0457 -0.0379,0.0838 -0.0834,0.0838h-0.3107v-5.4924c0,-0.1219 0.0986,-0.2209 0.2198,-0.2209h2.5993c0.6516,0 1.1897,0.5332 1.1897,1.196v0.6627c0,0.5409 -0.4774,1.1731 -1.0912,1.1731zM79.5061,53.8548h2.2886c0.4395,0 0.7956,-0.358 0.7956,-0.7998v-0.7618c0,-0.4418 -0.3561,-0.7999 -0.7956,-0.7999h-2.3417c-0.0455,0 -0.0833,0.0381 -0.0833,0.0838v2.1482c0,0.0686 0.0606,0.1295 0.1364,0.1295zM85.1744,51.4933h-1.8111v-0.2513c0,-0.0458 0.0378,-0.0762 0.0833,-0.0762h3.9481v0.2437c0,0.0457 -0.0378,0.0838 -0.0833,0.0838h-1.7429v5.302c0,0.0457 -0.038,0.0838 -0.0835,0.0838h-0.3106z" fill="#000000"></path></g><g clip-path="url(#clip-2)"><path d="M67.8718,12.4683c-1.2076,-0.4201 -2.498,-0.6331 -3.8351,-0.6331c-0.6423,0 -1.2868,0.0514 -1.9276,0.1497c0.7762,-2.7551 0.7389,-5.61957 -0.1521,-8.20427l-0.1544,-0.44805l-0.4591,0.11031c-2.1008,0.50509 -4.0599,1.56008 -5.7259,3.0427c-0.7517,-2.10431 -1.9652,-3.97512 -3.5659,-5.4321l-0.3498,-0.31838l-0.3498,0.31838c-1.6008,1.45698 -2.8144,3.328 -3.5661,5.43252c0,-0.00011 0,0.0001 0,0c-1.6658,-1.48263 -3.6249,-2.53803 -5.7257,-3.04312l-0.459,-0.11031l-0.1545,0.44805c-0.891,2.5846 -0.9282,5.44906 -0.1521,8.20427c-0.6408,-0.0983 -1.2852,-0.1497 -1.9276,-0.1497c-1.3371,0 -2.6274,0.213 -3.8351,0.6331l-0.4461,0.1551l0.1099,0.4612c0.8004,3.3592 3.1373,6.3193 6.4116,8.1213c2.0087,1.1056 4.2321,1.6898 6.4297,1.6899c-0.0002,0 0.0003,0 0,0c1.2743,0 2.5061,-0.1959 3.6648,-0.5779c1.1587,0.382 2.39,0.5779 3.6648,0.5779c2.1975,0 4.421,-0.5842 6.4298,-1.6899c3.2743,-1.802 5.6112,-4.7621 6.4116,-8.1213l0.1098,-0.4612zM61.1203,4.58337c0.7229,2.42269 0.6529,5.08788 -0.1708,7.63343c-1.1506,0.2838 -2.277,0.722 -3.3428,1.3085c-0.4688,0.258 -0.9175,0.5404 -1.3459,0.8437c0.156,-0.8857 0.2368,-1.7968 0.2368,-2.7232c0,-1.3997 -0.1841,-2.76505 -0.5352,-4.05928c-0.0001,-0.00031 0,0.00031 0,0c1.4901,-1.42233 3.2553,-2.45975 5.1579,-3.00315zM51.7018,2.16132c2.3915,2.36847 3.7539,5.7958 3.7539,9.48438c0,1.2989 -0.1695,2.5652 -0.4929,3.7644c-1.4468,1.3132 -2.5659,2.9007 -3.2609,4.6421c-0.6952,-1.7414 -1.8142,-3.3289 -3.261,-4.6421c-0.3233,-1.1991 -0.4929,-2.4655 -0.4929,-3.7643c-0.0001,-3.68868 1.3624,-7.1159 3.7538,-9.48448zM42.2833,4.58337c1.9026,0.54352 3.6675,1.58175 5.1577,3.00409c-0.351,1.29392 -0.5352,2.65894 -0.5352,4.05834c0,0.9263 0.0809,1.8375 0.2369,2.7232c-0.4285,-0.3033 -0.8773,-0.5857 -1.3459,-0.8437c-1.0658,-0.5865 -2.1922,-1.0247 -3.3428,-1.3085c-0.8236,-2.54565 -0.8936,-5.21074 -0.1707,-7.63343zM48.0377,21.8493c-0.0001,0 0.0002,0 0,0c-2.0232,-0.0002 -4.0741,-0.5399 -5.9298,-1.5613c-2.8625,-1.5754 -4.9446,-4.0995 -5.7755,-6.9783c0.964,-0.2841 1.9824,-0.4279 3.0345,-0.4279c0.7641,0 1.532,0.0773 2.2919,0.2282c0.006,0.0011 0.012,0.0026 0.018,0.0038c0.1014,0.0203 0.2026,0.042 0.3036,0.065c0.0767,0.0174 0.1532,0.0364 0.2297,0.0553c0.0313,0.0078 0.0627,0.0153 0.0941,0.0232c0.0893,0.0229 0.1783,0.0469 0.2672,0.0719c0.0142,0.0041 0.0283,0.0079 0.0424,0.0119c0.0974,0.0277 0.1947,0.0564 0.2916,0.0863c0.8197,0.2538 1.622,0.5929 2.3906,1.0159c2.8625,1.5755 4.9447,4.0995 5.7757,6.9782c-0.9641,0.284 -1.9823,0.4278 -3.034,0.4278zM61.2958,20.2882c-1.856,1.0213 -3.9062,1.5611 -5.9292,1.5611c-1.0521,0 -2.0706,-0.1437 -3.0346,-0.4279c0.8309,-2.8787 2.9131,-5.4028 5.7755,-6.9782c0.7686,-0.423 1.5711,-0.7621 2.3906,-1.0159c0.0972,-0.03 0.1945,-0.0587 0.2919,-0.0865c0.014,-0.0039 0.0279,-0.0077 0.0419,-0.0117c0.089,-0.025 0.1783,-0.049 0.2677,-0.072c0.0312,-0.0079 0.0623,-0.0154 0.0935,-0.0231c0.0766,-0.019 0.1533,-0.038 0.2301,-0.0554c0.1009,-0.0229 0.202,-0.0446 0.3032,-0.0649c0.0061,-0.0012 0.0122,-0.0026 0.0183,-0.0038c0.7599,-0.1508 1.5279,-0.2282 2.2919,-0.2282c1.0521,0 2.0705,0.1438 3.0345,0.4279c-0.8309,2.8789 -2.9129,5.4031 -5.7753,6.9786z" fill="#000000"></path></g><g clip-path="url(#clip-3)"><path d="M0.64081,47.6374c0.5243,0 0.96121,-0.4392 0.96121,-0.9662v-19.4717c0,-0.5563 -0.43691,-0.9955 -0.96121,-0.9955h-0.5243c-0.05826,0 -0.11651,-0.0586 -0.11651,-0.1172c0,-0.0585 0.05826,-0.1171 0.11651,-0.1171h5.30122c1.86418,0 3.37883,1.5519 3.37883,3.4259v4.2164c0,1.9032 -1.51465,3.4258 -3.37883,3.4258h-1.57287v9.6334c0,0.527 0.43692,0.9662 0.96123,0.9662h0.5243c0.05825,0 0.11648,0.0586 0.11648,0.1171c0,0.0586 -0.05823,0.1171 -0.11648,0.1171h-5.21388c-0.05826,0 -0.11651,-0.0585 -0.11651,-0.1171c0,-0.0585 0.05826,-0.1171 0.11651,-0.1171zM4.28177,26.204h-0.43691v10.5996h0.43691c1.28166,0 2.30109,-1.0248 2.30109,-2.2839v-6.0026c0,-1.2883 -1.01943,-2.3131 -2.30109,-2.3131zM16.0202,45.5292c-0.466,1.4348 -1.5729,2.3424 -3.0292,2.3424c-1.136,0 -2.1555,-0.4391 -2.7381,-1.1712c-0.55338,-0.732 -0.72816,-1.7275 -0.46602,-2.8402c0.49522,-2.1082 2.56322,-2.7816 4.54392,-3.4259c0.5826,-0.1756 1.1943,-0.3806 1.7768,-0.6148c1.8351,-0.7613 1.8933,-2.6646 1.8933,-2.811c0,-1.464 -0.9029,-3.0158 -3.4079,-3.0158c-1.6603,0 -2.9711,0.9369 -3.3206,2.2546c0.1748,-0.1464 0.4078,-0.2636 0.67,-0.2636c0.5534,0 1.0194,0.4685 1.0194,1.0248c0,0.5564 -0.466,1.0249 -1.0194,1.0249c-0.5535,0 -1.0195,-0.4685 -1.0195,-1.0249c0,-1.8446 1.5729,-3.2502 3.6701,-3.2502c2.2137,0 3.6409,1.2592 3.6701,3.221v9.6919c0,0.527 0.4078,0.9662 0.9612,0.9662h0.4952c0.0874,0 0.1165,0.0586 0.1165,0.1171c0,0.0586 -0.0291,0.1171 -0.1165,0.1171h-1.6021c-1.1359,0 -2.0972,-0.9369 -2.0972,-2.1082zM12.991,47.6374c2.0971,0 3.0292,-1.8447 3.0292,-3.6893v-3.8651c-0.5243,0.2342 -1.0777,0.4099 -1.6311,0.5856c-2.0098,0.6442 -3.9031,1.2884 -4.3692,3.2209c-0.23302,1.0834 -0.11647,1.9911 0.4369,2.6645c0.5243,0.6735 1.4564,1.0834 2.5342,1.0834zM24.4673,33.7583c1.3981,0 2.5341,1.142 2.5341,2.5182v0.732c0,0.5564 -0.466,1.0249 -1.0194,1.0249c-0.5535,0 -1.0196,-0.4685 -1.0196,-1.0249c0,-0.5563 0.4661,-1.0248 1.0196,-1.0248c0.3203,0 0.5825,0.1464 0.7864,0.3807v-0.0879c0,-1.259 -1.0195,-2.2838 -2.272,-2.2838c-1.2816,0 -2.3011,1.0248 -2.3011,2.2838v10.3947c0,0.527 0.4369,0.9662 0.9612,0.9662h0.5243c0.0583,0 0.1165,0.0586 0.1165,0.1171c0,0.0586 -0.0582,0.1171 -0.1165,0.1171h-5.1847c-0.0582,0 -0.1165,-0.0585 -0.1165,-0.1171c0,-0.0585 0.0583,-0.1171 0.1165,-0.1171h0.5243c0.5243,0 0.9612,-0.4392 0.9612,-0.9662v-9.6919c0,-0.0293 0.0291,-0.0879 0.0583,-0.0879c1.8933,-0.7905 1.9224,-2.9866 1.9224,-3.0159c0,-0.0586 0.0583,-0.1172 0.1165,-0.1172c0.0583,0 0.1165,0.0586 0.1165,0.1172v1.3469c0.4078,-0.8784 1.2525,-1.4641 2.272,-1.4641zM31.8949,47.6374c0.0582,0 0.1165,0.0586 0.1165,0.1171c0,0.0586 -0.0583,0.1171 -0.1165,0.1171h-5.2139c-0.0583,0 -0.1165,-0.0585 -0.1165,-0.1171c0,-0.0585 0.0582,-0.1171 0.1165,-0.1171h0.5243c0.5243,0 0.9612,-0.4392 0.9612,-0.9662v-9.7212c0,-0.0586 0.0292,-0.0879 0.0874,-0.1172c1.8933,-0.7613 1.8933,-2.9866 1.8933,-3.0159c0,-0.0586 0.0582,-0.1171 0.1165,-0.1171c0.0874,0 0.1165,0.0585 0.1456,0.1171v12.8543c0,0.527 0.4078,0.9662 0.9613,0.9662zM29.2734,32.0308c-0.6117,0 -1.1069,-0.4977 -1.1069,-1.0834c0,-0.6149 0.4952,-1.1126 1.1069,-1.1126c0.5825,0 1.0777,0.4977 1.0777,1.1126c0,0.5857 -0.4952,1.0834 -1.0777,1.0834zM34.0212,44.153c0,0.5563 -0.4369,1.0249 -0.9903,1.0249c-0.2622,0 -0.4952,-0.1172 -0.6991,-0.2636c0.4078,1.5519 1.9807,2.7231 3.874,2.7231h0.0874c1.5438,0 2.6214,-0.3807 3.204,-1.1127c0.2913,-0.3513 0.4078,-0.732 0.3495,-1.1126c-0.1165,-0.6442 -0.7573,-1.3176 -1.9224,-2.0497c-1.5438,-0.937 -3.5536,-2.0203 -3.5827,-2.0496c-1.5438,-0.9663 -2.3302,-2.2254 -2.3302,-3.8065v-0.0293c0,-2.2546 1.6312,-3.7187 4.1944,-3.7187c1.136,0 2.0972,0.3514 2.8254,0.8785c0,0.0293 0,0.0293 0.0291,0.0293l0.4078,0.2342c0.1456,0.0586 0.3204,0.0586 0.466,-0.0292c0.1457,-0.0879 0.2039,-0.2343 0.2039,-0.3807v-0.6149c0,-0.0586 0.0583,-0.1172 0.1166,-0.1172c0.0873,0 0.1165,0.0586 0.1165,0.1172v3.1038c0,0.0878 -0.0292,0.117 -0.1165,0.117c-0.0583,0 -0.1166,-0.0292 -0.1166,-0.117c0,-1.4055 -1.602,-2.9866 -3.9322,-2.9866c-1.3108,0 -2.3594,0.4099 -3.0584,1.1126c-0.3204,0.4685 -0.4369,0.937 -0.3204,1.3762c0.1747,0.937 1.1068,1.6104 1.6311,1.9618l3.9323,2.2839c1.1651,0.6734 1.8932,1.6104 2.1263,2.6938c0.233,0.9955 -0.0291,2.0789 -0.67,3.0159c-0.0582,0.0878 -0.0873,0.1757 -0.1747,0.2343c-0.6117,0.7905 -1.7477,1.2004 -3.3788,1.2004h-0.0874c-2.3302,0 -4.1944,-1.6689 -4.1944,-3.7186c0,-0.5563 0.466,-0.9955 1.0195,-0.9955c0.5534,0 0.9903,0.4392 0.9903,0.9955zM47.8277,45.5292c-0.466,1.4348 -1.5728,2.3424 -3.0292,2.3424c-1.136,0 -2.1555,-0.4391 -2.738,-1.1712c-0.5535,-0.732 -0.7283,-1.7275 -0.4661,-2.8402c0.4952,-2.1082 2.5633,-2.7816 4.5439,-3.4259c0.5826,-0.1756 1.1943,-0.3806 1.7769,-0.6148c1.835,-0.7613 1.8932,-2.6646 1.8932,-2.811c0,-1.464 -0.9029,-3.0158 -3.4079,-3.0158c-1.6603,0 -2.9711,0.9369 -3.3206,2.2546c0.1748,-0.1464 0.4078,-0.2636 0.67,-0.2636c0.5534,0 1.0195,0.4685 1.0195,1.0248c0,0.5564 -0.4661,1.0249 -1.0195,1.0249c-0.5535,0 -1.0195,-0.4685 -1.0195,-1.0249c0,-1.8446 1.5729,-3.2502 3.6701,-3.2502c2.2137,0 3.6409,1.2592 3.6701,3.221v9.6919c0,0.527 0.4078,0.9662 0.9612,0.9662h0.4951c0.0875,0 0.1166,0.0586 0.1166,0.1171c0,0.0586 -0.0291,0.1171 -0.1166,0.1171h-1.602c-1.1359,0 -2.0972,-0.9369 -2.0972,-2.1082zM44.7985,47.6374c2.0971,0 3.0292,-1.8447 3.0292,-3.6893v-3.8651c-0.5242,0.2342 -1.0777,0.4099 -1.6311,0.5856c-2.0098,0.6442 -3.9031,1.2884 -4.3692,3.2209c-0.233,1.0834 -0.1165,1.9911 0.4369,2.6645c0.5244,0.6735 1.4564,1.0834 2.5342,1.0834zM65.6253,47.8716c-0.0583,0 -0.1166,-0.0585 -0.1166,-0.1171c0,-0.0585 0.0583,-0.1171 0.1166,-0.1171h0.5239c0.5245,0 0.9616,-0.4392 0.9616,-0.9662v-9.6334h-3.7578v9.6334c0,0.527 0.4371,0.9662 0.961,0.9662h0.5245c0.0583,0 0.1165,0.0586 0.1165,0.1171c0,0.0586 -0.0582,0.1171 -0.1165,0.1171h-5.2136c-0.0582,0 -0.1165,-0.0585 -0.1165,-0.1171c0,-0.0585 0.0583,-0.1171 0.1165,-0.1171h0.5239c0.5246,0 0.9616,-0.4392 0.9616,-0.9662v-19.4717c0,-0.5563 -0.437,-0.9955 -0.9616,-0.9955h-0.5239c-0.0582,0 -0.1165,-0.0586 -0.1165,-0.1172c0,-0.0585 0.0583,-0.1171 0.1165,-0.1171h5.2136c0.0583,0 0.1165,0.0586 0.1165,0.1171c0,0.0586 -0.0582,0.1172 -0.1165,0.1172h-0.5245c-0.5239,0 -0.961,0.4392 -0.961,0.9955v9.6041h3.7578v-9.6041c0,-0.5563 -0.4371,-0.9955 -0.9616,-0.9955h-0.5239c-0.0583,0 -0.1166,-0.0586 -0.1166,-0.1172c0,-0.0585 0.0583,-0.1171 0.1166,-0.1171h5.2135c0.0583,0 0.1166,0.0586 0.1166,0.1171c0,0.0586 -0.0583,0.1172 -0.1166,0.1172h-0.5245c-0.5239,0 -0.961,0.4392 -0.961,0.9955v19.4717c0,0.527 0.4371,0.9662 0.961,0.9662h0.5245c0.0583,0 0.1166,0.0586 0.1166,0.1171c0,0.0586 -0.0583,0.1171 -0.1166,0.1171zM75.441,33.7583c1.8644,0 3.379,1.5227 3.379,3.3966v7.3202c0,1.874 -1.5146,3.3965 -3.379,3.3965h-1.1067c-1.8643,0 -3.3789,-1.5225 -3.3789,-3.3965v-7.3202c0,-1.8739 1.5146,-3.3966 3.3789,-3.3966zM78.5869,44.4751v-7.3202c0,-1.7275 -1.3981,-3.1622 -3.1459,-3.1622c-1.2524,0 -2.2716,1.0248 -2.2716,2.2838v9.077c0,1.2591 1.0192,2.2839 2.2716,2.2839c1.7478,0 3.1459,-1.4347 3.1459,-3.1623zM90.0047,47.6374c0.0874,0 0.1166,0.0586 0.1166,0.1171c0,0.0586 -0.0292,0.1171 -0.1166,0.1171h-1.602c-1.1359,0 -2.0677,-0.9369 -2.0677,-2.1082v-9.4869c0,-1.2005 -0.9616,-2.2838 -2.1557,-2.2838c-1.1942,0 -2.126,1.0833 -2.126,2.2838v10.3947c0,0.527 0.4365,0.9662 0.961,0.9662h0.5245c0.0583,0 0.1165,0.0586 0.1165,0.1171c0,0.0586 -0.0582,0.1171 -0.1165,0.1171h-5.185c-0.0583,0 -0.1166,-0.0585 -0.1166,-0.1171c0,-0.0585 0.0583,-0.1171 0.1166,-0.1171h0.5245c0.5239,0 0.961,-0.4392 0.961,-0.9662v-9.6919c0,-0.0293 0.0291,-0.0879 0.0583,-0.0879c1.8934,-0.7905 1.9226,-2.9866 1.9226,-3.0159c0,-0.0586 0.0582,-0.1172 0.1165,-0.1172c0.0583,0 0.1166,0.0586 0.1166,0.1172v1.3469c0.3491,-0.7906 1.1067,-1.4641 2.0094,-1.4641h1.1073c1.4272,0 2.6796,0.9078 3.1452,2.2254c0.1457,-1.1712 1.0782,-2.2254 2.214,-2.2254h1.1067c1.8644,0 3.379,1.5227 3.379,3.3966v9.5455c0.0291,0.5271 0.4662,0.937 0.961,0.937h0.5245c0.0583,0 0.1166,0.0586 0.1166,0.1171c0,0.0586 -0.0583,0.1171 -0.1166,0.1171h-1.6021c-1.1649,0 -2.0974,-0.9369 -2.0974,-2.1082v-9.4869c0,-1.2005 -0.9319,-2.2838 -2.126,-2.2838c-1.1941,0 -2.1265,1.0833 -2.1265,2.2838v10.4239c0,0.5271 0.4371,0.937 0.9616,0.937zM103.345,40.9321h-4.5146v4.4214c0,1.2005 0.9616,2.1961 2.1266,2.2839c0.932,-0.0586 1.689,-0.6734 2.01,-1.4933c-0.175,0.1464 -0.408,0.2342 -0.641,0.2342c-0.554,0 -1.019,-0.4685 -1.019,-1.0248c0,-0.5563 0.465,-1.0248 1.019,-1.0248c0.554,0 1.019,0.4685 1.019,1.0248c0,1.2883 -0.99,2.3717 -2.242,2.5181h-1.1071c-1.8643,0 -3.3789,-1.5225 -3.3789,-3.3965v-7.3202c0,-1.8739 1.5146,-3.3966 3.3789,-3.3966h1.1071c1.252,0.1465 2.242,1.2298 2.242,2.5182zM103.113,36.2765c0,-1.2005 -0.962,-2.196 -2.156,-2.2838c-1.165,0.0878 -2.1266,1.0833 -2.1266,2.2838v4.4214h4.2826z" fill="#000000"></path></g></g></g></svg>